<svg width="295" height="254" viewBox="0 0 295 254" fill="none" xmlns="http://www.w3.org/2000/svg">
<path d="M185.681 189.36L188.301 189.829C191.084 190.325 192.936 192.985 192.439 195.767L191.958 198.454C191.461 201.237 188.802 203.089 186.02 202.592L183.4 202.123C180.618 201.627 178.765 198.967 179.262 196.185L179.743 193.499C180.24 190.715 182.899 188.863 185.681 189.36ZM203.109 117.056C209.915 118.272 214.629 121.634 217.251 127.138C219.338 131.487 219.919 136.258 218.99 141.452C217.437 150.14 212.026 157.699 202.757 164.129C199.525 166.371 197.496 169.29 196.667 172.885C196.361 174.078 196.076 175.413 195.812 176.892C195.315 179.674 192.656 181.527 189.874 181.029L187.254 180.561C184.471 180.063 182.619 177.405 183.116 174.622V174.622C184.533 166.695 187.533 161.156 192.117 158C197.071 154.587 200.723 150.827 203.076 146.718C204.428 144.326 205.356 141.719 205.861 138.897C206.38 135.986 206.139 133.587 205.137 131.697C204.046 129.516 202.105 128.36 199.31 128.23C196.701 128.088 194.548 129.528 192.853 132.553C192.767 132.698 192.684 132.848 192.602 133.001C191.4 135.236 188.731 136.242 186.349 135.37L184.013 134.515C181.123 133.457 179.804 130.096 181.217 127.361C182.62 124.643 184.471 122.337 186.769 120.443C189.259 118.393 192.438 117.158 196.303 116.74C198.331 116.503 200.6 116.606 203.109 117.056Z" fill="#AEDBED"/>
<path d="M86.2017 200.082L88.3772 200.185C90.6877 200.295 92.4724 202.258 92.3617 204.568L92.2556 206.8C92.1456 209.111 90.183 210.894 87.8725 210.785L85.697 210.682C83.3865 210.571 81.6026 208.609 81.7126 206.298L81.8187 204.066C81.9286 201.756 83.8912 199.972 86.2017 200.082ZM92.7181 139.559C98.3703 139.828 102.551 142.059 105.259 146.251C107.412 149.559 108.386 153.371 108.181 157.684C107.838 164.9 104.243 171.605 97.3984 177.802C95.0114 179.963 93.6729 182.546 93.3804 185.551C93.2571 186.551 93.1667 187.665 93.1082 188.893C92.9982 191.203 91.0364 192.987 88.7251 192.878L86.5496 192.774C84.2383 192.663 82.4552 190.702 82.5644 188.391C82.8779 181.808 84.729 176.995 88.1167 173.95C91.7766 170.658 94.3445 167.221 95.8203 163.637C96.6651 161.552 97.1433 159.339 97.2548 156.997C97.3703 154.58 96.921 152.657 95.9077 151.229C94.793 149.574 93.0949 148.841 90.8133 149.03C88.6807 149.19 87.0855 150.586 86.0285 153.219C85.9747 153.347 85.9224 153.477 85.8717 153.61C85.133 155.551 83.073 156.648 81.048 156.192L79.062 155.745C76.6033 155.191 75.1797 152.603 76.037 150.234C76.8888 147.879 78.147 145.813 79.8124 144.033C81.6182 142.107 84.0675 140.769 87.1604 140.022C88.7821 139.615 90.6347 139.46 92.7181 139.559Z" fill="#AEDBED"/>
<path d="M124.575 112.996L126.234 112.705C127.997 112.396 129.675 113.574 129.984 115.336L130.283 117.037C130.592 118.798 129.415 120.478 127.653 120.787L125.993 121.078C124.232 121.387 122.553 120.209 122.244 118.447L121.945 116.747C121.636 114.985 122.814 113.305 124.575 112.996ZM119.22 66.2338C123.529 65.4772 127.061 66.4506 129.816 69.1535C132.001 71.2838 133.383 73.9936 133.961 77.2823C134.926 82.7839 133.352 88.4524 129.241 94.2894C127.807 96.3238 127.235 98.4993 127.525 100.816C127.602 101.592 127.723 102.448 127.887 103.383C128.196 105.145 127.018 106.824 125.257 107.133L123.598 107.424C121.836 107.733 120.157 106.556 119.847 104.793C118.967 99.7747 119.546 95.83 121.585 92.9587C123.787 89.8534 125.142 86.8245 125.646 83.8713C125.929 82.1552 125.915 80.404 125.601 78.6177C125.278 76.7745 124.613 75.4008 123.606 74.496C122.485 73.4359 121.079 73.1707 119.39 73.7011C117.808 74.1832 116.841 75.5069 116.492 77.6738C116.472 77.7791 116.455 77.886 116.439 77.9952C116.212 79.5842 114.844 80.7628 113.238 80.762L111.665 80.7612C109.716 80.7605 108.202 79.0498 108.447 77.1169C108.691 75.1964 109.289 73.4242 110.243 71.7994C111.279 70.0388 112.9 68.6145 115.106 67.5255C116.259 66.9436 117.631 66.5123 119.22 66.2338Z" fill="#AEDBED"/>
<path d="M3.19108 162.974L4.2925 163.259C5.46178 163.561 6.16381 164.755 5.86116 165.924L5.56864 167.053C5.26599 168.223 4.07253 168.925 2.90325 168.622L1.80184 168.337C0.632558 168.034 -0.0694765 166.841 0.233179 165.672L0.525693 164.542C0.828348 163.373 2.02181 162.67 3.19108 162.974ZM12.979 132.735C15.8394 133.477 17.738 135.062 18.6756 137.494C19.4229 139.414 19.5142 141.467 18.9486 143.65C18.0032 147.3 15.451 150.345 11.291 152.782C9.84091 153.63 8.88069 154.808 8.41032 156.313C8.24105 156.811 8.07569 157.37 7.915 157.992C7.61234 159.161 6.41888 159.864 5.24961 159.56L4.14897 159.276C2.97969 158.973 2.27688 157.78 2.57953 156.61C3.44226 153.279 4.90171 151.017 6.95867 149.822C9.18022 148.529 10.8596 147.047 11.9962 145.373C12.6498 144.398 13.1311 143.318 13.4377 142.131C13.7544 140.909 13.7302 139.878 13.3643 139.04C12.972 138.075 12.1818 137.519 10.9954 137.373C9.8885 137.226 8.92437 137.769 8.10299 139.003C8.06165 139.063 8.02108 139.124 7.9813 139.187C7.39627 140.099 6.22621 140.44 5.23947 139.992L4.273 139.551C3.07564 139.005 2.62322 137.53 3.31511 136.411C4.00155 135.299 4.86505 134.377 5.90562 133.644C7.03434 132.853 8.42904 132.431 10.0897 132.378C10.9618 132.343 11.9252 132.463 12.979 132.735Z" fill="#AEDBED"/>
<path d="M46.4517 167.799L49.8511 166.926C53.4611 165.999 57.139 168.174 58.0664 171.784L58.9611 175.27C59.8886 178.88 57.7131 182.559 54.1031 183.486L50.7037 184.359C47.0936 185.285 43.4157 183.111 42.4883 179.501L41.5936 176.014C40.6661 172.404 42.8416 168.726 46.4517 167.799ZM27.7682 71.5191C36.599 69.2515 44.0944 70.7031 50.2536 75.8717C55.1382 79.945 58.4463 85.3507 60.1772 92.0902C63.0719 103.363 60.7193 115.393 53.1202 128.183C50.4704 132.641 49.6342 137.254 50.61 142.02C50.8955 143.618 51.2848 145.376 51.7778 147.294C52.7044 150.904 50.5297 154.582 46.9197 155.509L43.5195 156.382C39.9103 157.309 36.2316 155.135 35.3049 151.525C32.6637 141.239 33.23 132.95 37.0015 126.655C41.0749 119.849 43.3978 113.339 43.9696 107.121C44.2816 103.511 43.9672 99.875 43.0273 96.2143C42.0577 92.4389 40.4547 89.6916 38.2176 87.974C35.716 85.9545 32.7526 85.6307 29.3283 87.0052C26.1215 88.2626 24.3274 91.169 23.9499 95.726C23.928 95.9475 23.9093 96.1738 23.8945 96.4023C23.6769 99.7401 21.0263 102.409 17.6909 102.667L14.4209 102.92C10.3741 103.234 6.95284 99.9242 7.14863 95.8688C7.34364 91.8406 8.30075 88.0606 10.02 84.5309C11.8858 80.7079 15.0231 77.4864 19.4303 74.8678C21.7346 73.4723 24.5131 72.3553 27.7682 71.5191Z" fill="#AEDBED"/>
<path d="M268.923 170.044L271.326 169.427C273.877 168.772 276.476 170.309 277.131 172.86L277.763 175.324C278.419 177.875 276.882 180.474 274.331 181.129L271.928 181.746C269.377 182.402 266.778 180.864 266.123 178.313L265.49 175.849C264.835 173.299 266.372 170.7 268.923 170.044ZM255.72 102.005C261.961 100.403 267.258 101.429 271.61 105.082C275.062 107.959 277.4 111.78 278.623 116.542C280.668 124.508 279.006 133.01 273.636 142.048C271.763 145.198 271.172 148.457 271.862 151.826C272.064 152.956 272.339 154.199 272.687 155.554C273.342 158.104 271.805 160.703 269.254 161.359L266.852 161.976C264.301 162.631 261.702 161.093 261.046 158.543C259.18 151.275 259.58 145.418 262.245 140.968C265.124 136.159 266.765 131.558 267.17 127.164C267.39 124.613 267.168 122.044 266.504 119.456C265.819 116.789 264.685 114.847 263.105 113.633C261.337 112.207 259.243 111.977 256.823 112.949C254.557 113.837 253.289 115.892 253.022 119.111C253.006 119.268 252.993 119.428 252.982 119.589C252.83 121.949 250.956 123.834 248.599 124.017L246.288 124.196C243.428 124.417 241.01 122.079 241.149 119.213C241.287 116.366 241.963 113.695 243.178 111.2C244.497 108.498 246.714 106.222 249.829 104.372C251.456 103.385 253.42 102.596 255.72 102.005Z" fill="#AEDBED"/>
<path d="M257.936 57.1633L259.264 56.8225C260.674 56.4605 262.111 57.3092 262.473 58.7195L262.822 60.0815C263.185 61.4918 262.335 62.9286 260.925 63.2898L259.597 63.6314C258.187 63.9934 256.75 63.1439 256.389 61.7336L256.038 60.3716C255.676 58.9621 256.526 57.5253 257.936 57.1633ZM250.638 19.5553C254.087 18.6692 257.016 19.2363 259.421 21.2558C261.329 22.8463 262.621 24.9579 263.297 27.5905C264.428 31.9931 263.509 36.6928 260.541 41.6882C259.506 43.4308 259.18 45.2311 259.56 47.0931C259.672 47.7179 259.824 48.4043 260.016 49.1531C260.378 50.5634 259.529 52.0003 258.119 52.3622L256.791 52.7031C255.381 53.065 253.944 52.2156 253.582 50.806C252.551 46.7881 252.771 43.5509 254.245 41.0914C255.836 38.4331 256.743 35.8901 256.967 33.4611C257.088 32.0516 256.966 30.6311 256.598 29.2013C256.22 27.7263 255.594 26.6537 254.719 25.9821C253.743 25.1942 252.585 25.0671 251.247 25.6038C249.995 26.0952 249.294 27.2309 249.147 29.0102C249.138 29.0976 249.13 29.1857 249.125 29.2746C249.04 30.5789 248.005 31.621 246.702 31.7216L245.424 31.8207C243.844 31.9431 242.508 30.6506 242.584 29.0664C242.661 27.493 243.034 26.0164 243.706 24.6381C244.434 23.1443 245.66 21.8853 247.381 20.8635C248.282 20.3182 249.367 19.8814 250.638 19.5553Z" fill="#AEDBED"/>
<path d="M79.7786 80.6146C79.7786 80.6146 87.462 43.1556 69.9548 45.0011L53.2183 79.8486C53.2183 79.8486 64.4368 84.4469 79.7786 80.6146Z" fill="#361710"/>
<path d="M40.7711 80.6146C40.7711 80.6146 36.5121 50.2383 49.726 42.53L67.3315 79.8486C67.3315 79.8486 56.1137 84.4469 40.7711 80.6146Z" fill="#361710"/>
<path d="M13.6484 72.2144H15.6859C17.8497 72.2144 19.604 73.9687 19.604 76.1318V78.2215C19.604 80.3861 17.8497 82.1396 15.6859 82.1396H13.6484C11.4846 82.1396 9.73108 80.3861 9.73108 78.2215V76.1318C9.73108 73.9687 11.4846 72.2144 13.6484 72.2144ZM17.0447 15.3793C22.3373 15.3793 26.342 17.2771 29.0589 21.0728C31.218 24.0681 32.2976 27.5853 32.2976 31.6251C32.2976 38.3818 29.2375 44.807 23.1189 50.9014C20.9847 53.0255 19.849 55.4982 19.7093 58.3196C19.6391 59.2596 19.604 60.3032 19.604 61.453C19.604 63.6176 17.8497 65.3712 15.6859 65.3712H13.6484C11.4846 65.3712 9.73108 63.6176 9.73108 61.453C9.73108 55.2892 11.2459 50.7103 14.2756 47.715C17.5486 44.4755 19.7944 41.1502 21.0143 37.7367C21.7101 35.7523 22.0588 33.6626 22.0588 31.4683C22.0588 29.2047 21.5541 27.4293 20.544 26.1407C19.4293 24.6438 17.8099 24.033 15.6859 24.3115C13.7007 24.5556 12.2724 25.9316 11.4027 28.4387C11.3575 28.5604 11.3146 28.6844 11.2732 28.8107C10.6695 30.6571 8.79347 31.7741 6.88082 31.4387L5.0056 31.1087C2.68421 30.7 1.2388 28.3458 1.93459 26.0939C2.62571 23.8567 3.70996 21.87 5.18579 20.132C6.78799 18.2522 9.01656 16.8941 11.8731 16.0587C13.37 15.6063 15.0931 15.3793 17.0447 15.3793Z" fill="#FCC822"/>
<path d="M62.3934 226.099C62.3934 226.099 61.4238 229.846 59.6796 229.281C56.419 228.228 56.2287 226.099 56.2287 226.099C56.2287 226.099 54.1725 232.299 54.5641 235.251C54.9557 238.204 54.5641 244.842 54.5641 244.842H57.54C57.54 244.842 60.3231 245.18 61.4768 246.858C62.6313 248.536 68.9535 248.038 70.9574 246.962C73.5245 245.584 66.7865 238.57 64.4027 234.661C62.0189 230.752 62.3934 226.099 62.3934 226.099Z" fill="#1C0906"/>
<path d="M56.8241 170.925C58.8803 165.846 66.2158 165.903 68.0247 171.074C68.3508 172.006 68.5871 172.982 68.7416 173.969C69.5021 178.819 68.7384 186.591 66.7361 196.518C64.034 209.911 62.5738 236.629 57.8819 237.022C53.1892 237.415 55.9474 214.949 55.8491 201.664C55.7516 188.378 53.658 178.746 56.6291 171.409L56.8241 170.925Z" fill="#CF9166"/>
<path d="M59.5238 209.249C58.8818 191.724 60.048 178.724 57.2523 169.483L57.069 168.876C55.1337 162.48 49.2179 163.619 48.0377 170.698C47.8256 171.973 47.6883 173.293 47.6165 174.618C47.2671 181.12 48.3045 191.253 50.459 204.047C53.367 221.308 54.0737 237.185 57.8818 237.022C61.6892 236.859 60.1658 226.774 59.5238 209.249Z" fill="#EDAC7C"/>
<path d="M54.2074 229.181C54.2074 229.181 55.0374 235.8 57.3471 235.4C59.6186 235.006 60.3713 229.181 60.3713 229.181C60.3713 229.181 62.4283 235.38 62.0367 238.333C61.8159 239.997 61.844 242.83 61.9103 244.988C61.9595 246.596 60.6701 247.923 59.0608 247.923C59.0608 247.923 56.2777 248.262 55.1232 249.94C53.9695 251.618 47.6473 251.121 45.6434 250.044C43.0755 248.666 49.8143 241.652 52.1981 237.743C54.5819 233.833 54.2074 229.181 54.2074 229.181Z" fill="#361710"/>
<path d="M73.8917 128.758L58.9937 126.06V125.957L58.7082 126.009L58.4219 125.957V126.06L43.5248 128.758C43.5248 128.758 38.2564 136.604 39.2876 145.834C40.318 155.064 45.0692 204.981 45.0692 204.981H70.7154C70.7154 204.981 77.0976 155.064 78.1288 145.834C79.1593 136.604 73.8917 128.758 73.8917 128.758Z" fill="#195172"/>
<path d="M75.667 132.082C74.727 130.003 73.8916 128.757 73.8916 128.757L58.9937 126.059V125.956L58.7082 126.008L58.4227 125.956V126.059L43.5247 128.757C43.5247 128.757 42.6893 130.003 41.7501 132.082H75.667Z" fill="#0D435E"/>
<path d="M61.912 204.98L62.0859 155.113L66.3566 204.98" fill="#0D435E"/>
<path d="M39.1644 142.856C40.6098 142.814 43.0451 142.526 46.5701 141.412C52.7504 139.458 52.8026 131.299 52.8026 131.299L52.6373 127.108L43.5248 128.758C43.5248 128.758 39.3532 134.978 39.1644 142.856Z" fill="#0D435E"/>
<path d="M78.2524 142.858C78.0644 134.979 73.892 128.758 73.892 128.758L64.1524 126.994L63.9036 131.299C63.9036 131.299 63.9558 139.458 70.1361 141.412C74.3249 142.737 76.9755 142.894 78.2524 142.858Z" fill="#0D435E"/>
<path d="M44.3568 86.44L54.9404 82.1389L63.2462 82.2286L76.2237 87.6413C76.2237 87.6413 69.4592 110.894 69.9046 116.894C70.35 122.894 73.8914 129.685 73.8914 129.685H44.3568C44.3568 129.685 49.6447 118.986 48.484 112.674C47.3225 106.362 44.3568 86.44 44.3568 86.44Z" fill="#5C93BC"/>
<path d="M69.187 50.0864C65.5957 43.3671 46.6104 40.9872 43.1197 62.1122C40.5744 77.5071 57.8944 81.1374 66.6737 78.3183C81.6099 73.5226 72.7791 56.8056 69.187 50.0864Z" fill="#3E150D"/>
<path d="M72.2779 64.3781C72.2779 64.3781 74.962 60.9311 77.4324 63.1955C79.9036 65.4615 76.3723 72.4413 71.6406 70.7993L72.2779 64.3781Z" fill="#EDAC7C"/>
<path d="M72.0367 66.8126L71.7075 70.1184C75.8004 70.8532 78.1358 65.1542 76.2536 64.364C74.7309 63.7252 72.8417 65.7244 72.0367 66.8126Z" fill="#F7A588"/>
<path d="M76.9129 65.5442C76.9129 65.5442 76.9051 65.5184 76.8926 65.4708C76.8801 65.424 76.8575 65.3569 76.831 65.2727C76.7694 65.1089 76.6641 64.8718 76.4636 64.7017C76.4137 64.6588 76.3552 64.6245 76.2951 64.5956C76.2639 64.5824 76.2335 64.5675 76.1984 64.5566L76.1757 64.5488L76.1742 64.548C76.1921 64.5543 76.1781 64.5496 76.1812 64.5512L76.1781 64.5496L76.1687 64.548L76.1531 64.5441L76.0884 64.5262C76.0416 64.5122 76.0065 64.5075 75.9714 64.502C75.9378 64.4958 75.9004 64.4903 75.8567 64.488C75.8177 64.4856 75.7772 64.4833 75.7374 64.4841C75.6945 64.4841 75.6539 64.4825 75.6118 64.488C75.2756 64.5114 74.9199 64.6424 74.5814 64.8242C74.409 64.9123 74.2452 65.0192 74.0829 65.1268C73.923 65.236 73.7654 65.3491 73.6164 65.463C73.3192 65.6931 73.0486 65.9248 72.8146 66.1245C72.3473 66.5371 72.0369 66.8125 72.0369 66.8125C72.0369 66.8125 72.0766 66.715 72.164 66.5527C72.2529 66.3921 72.3863 66.1651 72.5728 65.9108C72.6671 65.7844 72.7701 65.6463 72.8902 65.5098C73.0096 65.3725 73.1422 65.2314 73.2873 65.0933C73.5782 64.8179 73.9191 64.5465 74.3122 64.3367C74.5088 64.2329 74.7171 64.1432 74.9347 64.0824C75.1531 64.0215 75.3825 63.9888 75.6063 63.9973C75.6617 63.9981 75.7163 64.0028 75.7725 64.0106C75.8271 64.0137 75.8801 64.0262 75.9332 64.0379C75.9854 64.048 76.0385 64.0636 76.0923 64.0816C76.1477 64.0987 76.1992 64.1159 76.235 64.1354L76.2967 64.1643L76.3357 64.1822L76.3708 64.2009C76.4168 64.2251 76.4589 64.254 76.4995 64.2844C76.5782 64.3468 76.6477 64.4154 76.7015 64.488C76.8146 64.63 76.87 64.7828 76.902 64.9147C76.9355 65.0457 76.9394 65.1627 76.941 65.2548C76.941 65.3476 76.93 65.4217 76.9246 65.4701C76.9168 65.5192 76.9129 65.5442 76.9129 65.5442Z" fill="#CF9166"/>
<path d="M47.3923 64.1095C47.3923 64.1095 44.7831 60.6071 42.2651 62.8177C39.7448 65.0283 43.1255 72.0838 47.8923 70.544L47.3923 64.1095Z" fill="#EDAC7C"/>
<path d="M47.5817 66.5483L47.8391 69.8604C43.7322 70.5078 41.52 64.7597 43.4194 64.0101C44.9537 63.4048 46.8009 65.443 47.5817 66.5483Z" fill="#F7A588"/>
<path d="M42.7348 65.176C42.7348 65.176 42.7418 65.1518 42.7558 65.1042C42.7699 65.0566 42.7933 64.9903 42.8229 64.9061C42.8861 64.743 42.9961 64.509 43.202 64.3429C43.2519 64.3015 43.3096 64.2688 43.3721 64.2407C43.404 64.229 43.4345 64.2142 43.4672 64.2048L43.4937 64.197L43.4953 64.1962C43.4758 64.2033 43.4914 64.197 43.4875 64.1986H43.4914L43.4992 64.1955L43.5148 64.1916L43.5811 64.176C43.6263 64.1627 43.663 64.1588 43.6981 64.1541C43.7324 64.1479 43.7707 64.1447 43.8128 64.1432C43.8526 64.1408 43.8916 64.1393 43.9329 64.1416C43.9742 64.1416 44.0156 64.1424 44.0577 64.1486C44.3923 64.1783 44.7465 64.3164 45.0811 64.5067C45.2504 64.5995 45.4134 64.7079 45.5733 64.8195C45.7301 64.9326 45.8853 65.0488 46.032 65.1666C46.3245 65.403 46.5897 65.6401 46.8198 65.8437C47.2777 66.2672 47.5819 66.5488 47.5819 66.5488C47.5819 66.5488 47.5437 66.4505 47.4595 66.2867C47.376 66.1245 47.2465 65.8936 47.0648 65.6354C46.9743 65.5075 46.8729 65.3671 46.7559 65.2282C46.6389 65.0886 46.5117 64.9443 46.369 64.8023C46.0842 64.5223 45.7496 64.243 45.3612 64.0238C45.1677 63.9178 44.9594 63.8234 44.7426 63.7578C44.5257 63.6915 44.298 63.6541 44.0749 63.6572C44.0179 63.6564 43.9633 63.6619 43.9079 63.6674C43.8526 63.6697 43.7995 63.6791 43.7449 63.6915C43.6942 63.6993 43.6412 63.7134 43.5858 63.7313C43.5312 63.7477 43.4797 63.7633 43.4423 63.7828L43.3806 63.8086L43.3416 63.8265L43.3057 63.8444C43.2589 63.8671 43.2153 63.8959 43.1739 63.9248C43.0951 63.9864 43.0249 64.0527 42.968 64.1237C42.8525 64.2649 42.794 64.4162 42.7589 64.5457C42.7223 64.6767 42.716 64.793 42.7129 64.8866C42.7106 64.9802 42.7192 65.0535 42.7246 65.1019C42.7309 65.1502 42.7348 65.176 42.7348 65.176Z" fill="#CF9166"/>
<path d="M62.6919 74.9788L55.9547 74.9047C55.9547 74.9047 55.5818 85.4516 55.5569 85.4516C55.5569 85.4516 56.0288 87.5608 59.0171 87.6396C62.0062 87.7176 62.7668 85.528 62.7668 85.528C62.7426 85.4703 62.6919 74.9788 62.6919 74.9788Z" fill="#EDAC7C"/>
<path d="M62.7668 78.8617L55.7433 78.627C55.7433 78.627 55.7036 82.5084 55.6786 82.5084C55.6786 82.5084 56.0561 84.9749 59.0452 85.0537C62.0343 85.1317 62.7372 82.8657 62.7372 82.8657C62.7138 82.8072 62.7668 78.8617 62.7668 78.8617Z" fill="#CF9166"/>
<path d="M62.6706 76.918L55.9334 76.8446C55.9334 76.8446 55.8336 78.191 55.7439 79.3369C55.7298 79.5022 57.6627 79.8166 57.8726 79.8517C59.5185 80.1309 61.1448 79.9367 62.7541 79.5451C62.7143 78.3719 62.6706 76.918 62.6706 76.918Z" fill="#CF9166"/>
<path d="M75.7138 61.6331C75.6233 70.0341 68.2605 76.7666 59.269 76.6699C50.2775 76.5731 43.0621 69.6831 43.1518 61.282C43.2423 52.8795 50.6051 46.147 59.5974 46.2437C68.5881 46.3412 75.805 53.2305 75.7138 61.6331Z" fill="#3E150D"/>
<path d="M73.9849 61.4086C73.8726 56.7268 71.9077 52.2861 67.3023 50.4194C64.9607 49.4694 62.3811 49.1956 59.8639 49.2088C57.3771 49.2229 54.7281 49.3555 52.381 50.2307C48.1781 51.8009 47.0369 49.2385 46.565 53.5092C46.5182 53.9273 45.9628 55.7159 45.3934 61.1005C45.2912 62.06 45.2647 63.0132 45.2896 63.982C45.3474 66.1583 45.6695 68.344 46.3575 70.4173C47.1906 72.9329 48.6025 75.2746 50.6742 76.9946C51.8513 77.9727 53.2102 78.7263 54.6532 79.2536C57.0362 80.1218 59.3116 80.4252 61.8179 79.9915C63.5168 79.6982 65.1759 79.1615 66.6736 78.3199C69.1588 76.9236 71.0325 74.7317 72.215 72.1872C73.2088 70.046 73.74 67.7106 73.9514 65.3728C74.0668 64.0927 74.1058 62.7909 73.9943 61.5108C73.9912 61.4765 73.9857 61.4429 73.9849 61.4086Z" fill="#EDAC7C"/>
<path d="M64.0392 65.8372C63.9729 67.1663 64.9097 68.2919 66.1305 68.352C67.352 68.4121 68.3949 67.3816 68.462 66.0517C68.5283 64.7225 67.5931 63.5969 66.3707 63.5376C65.15 63.4775 64.1055 64.508 64.0392 65.8372Z" fill="#CF9166"/>
<path d="M64.0672 65.2739C64.0001 66.6038 64.937 67.7287 66.1577 67.7895C67.3801 67.8496 68.423 66.8191 68.4893 65.4899C68.5571 64.1608 67.6211 63.0336 66.3988 62.9743C65.178 62.9158 64.1335 63.9447 64.0672 65.2739Z" fill="black"/>
<path d="M64.8588 64.6591C64.8346 65.1404 65.2129 65.5507 65.702 65.5741C66.1926 65.5983 66.6092 65.2277 66.6326 64.7457C66.6575 64.2644 66.2792 63.8557 65.7901 63.8315C65.3003 63.8065 64.8829 64.1778 64.8588 64.6591Z" fill="white"/>
<path d="M50.8515 65.3176C50.7852 66.6468 51.7212 67.7724 52.942 67.8325C54.1643 67.8925 55.2072 66.8613 55.2735 65.5329C55.3406 64.2037 54.4053 63.0773 53.183 63.0181C51.963 62.9596 50.9178 63.9877 50.8515 65.3176Z" fill="#CF9166"/>
<path d="M50.8797 64.7544C50.8126 66.0844 51.7503 67.2092 52.9702 67.27C54.1926 67.3293 55.2355 66.3004 55.3018 64.9697C55.3696 63.6413 54.4328 62.5141 53.2113 62.4556C51.9913 62.3963 50.946 63.426 50.8797 64.7544Z" fill="black"/>
<path d="M51.6716 64.1405C51.6482 64.6218 52.0241 65.0321 52.5148 65.0555C53.0047 65.0797 53.422 64.7092 53.4462 64.2263C53.4696 63.7451 53.0928 63.3355 52.6014 63.3121C52.1123 63.288 51.6957 63.6585 51.6716 64.1405Z" fill="white"/>
<path d="M58.644 63.851C58.644 63.851 58.9685 66.7777 57.5902 66.5343C54.9224 66.0679 54.9154 71.7848 58.9435 69.656C60.4638 68.8534 59.963 63.8908 59.963 63.8908L58.644 63.851Z" fill="#F48470"/>
<path d="M55.8174 72.2306C55.8174 72.2306 61.1848 73.1238 63.7356 70.0481C63.7356 70.0481 65.8799 75.7938 60.117 76.5317C56.4765 76.9951 55.8174 72.2306 55.8174 72.2306Z" fill="#B43128"/>
<path d="M57.6425 75.855C58.2524 76.3581 59.0582 76.6662 60.1167 76.532C61.4241 76.3635 62.3227 75.9384 62.935 75.383C63.1105 75.2153 63.2665 75.0359 63.4085 74.8495C63.4124 74.8456 63.4155 74.8409 63.4179 74.837C63.421 74.8339 63.421 74.8323 63.4225 74.8308C63.8617 74.2091 64.0505 73.4969 64.1066 72.8151C60.8679 71.968 58.5465 74.5 57.6425 75.855Z" fill="#F05736"/>
<path d="M55.8174 72.2316C55.8174 72.2316 55.8244 72.2729 55.8361 72.3455C56.3587 72.4531 57.326 73.5888 58.6279 73.5436C59.4516 73.5163 60.2589 73.2885 61 72.9399C61.4602 72.7238 61.9344 72.5155 62.3323 72.1965C62.6373 71.9531 62.8565 71.2316 62.9852 70.7854C60.2636 72.9703 55.8182 72.2316 55.8174 72.2316Z" fill="white"/>
<path d="M56.1763 72.5682C56.4087 73.6431 57.3065 76.6003 60.0804 76.2453C61.617 76.0503 62.6966 75.4637 63.2894 74.5059C64.1077 73.1829 63.8152 71.4473 63.6038 70.622C61.298 72.9091 57.4407 72.7063 56.1763 72.5682ZM59.5827 76.8483C56.1981 76.8124 55.5351 72.3186 55.5296 72.2695C55.5163 72.1806 55.5475 72.0893 55.6146 72.0261C55.6817 71.9629 55.7738 71.9333 55.8666 71.9489C55.9181 71.9567 61.0991 72.7765 63.5094 69.867C63.5757 69.7882 63.6802 69.7476 63.784 69.7656C63.8877 69.7827 63.9735 69.8529 64.0102 69.9504C64.0523 70.0635 65.0398 72.7742 63.7902 74.8015C63.1014 75.9162 61.8783 76.5956 60.1552 76.8148C59.9548 76.8405 59.766 76.8506 59.5827 76.8483Z" fill="#F05B4E"/>
<path d="M53.7287 71.9185C53.7155 73.1455 52.6936 74.1291 51.4456 74.1151C50.1975 74.1018 49.1952 73.0964 49.2076 71.8694C49.2217 70.6424 50.2443 69.6595 51.4924 69.672C52.7404 69.6868 53.742 70.6915 53.7287 71.9185Z" fill="#F49B77"/>
<path d="M69.9544 70.6638C69.9412 71.8908 68.9186 72.8752 67.6689 72.8612C66.4224 72.8479 65.4209 71.8432 65.4333 70.6154C65.4474 69.3892 66.4692 68.4056 67.7173 68.4189C68.9654 68.4329 69.9677 69.4384 69.9544 70.6638Z" fill="#F49B77"/>
<path d="M49.3296 59.2461C49.3296 59.2461 49.3795 59.154 49.4965 59.0113C49.5558 58.9427 49.6276 58.853 49.7212 58.7672C49.8117 58.6759 49.9201 58.5807 50.0457 58.4824C50.1705 58.3849 50.3117 58.2866 50.4669 58.1915C50.6237 58.1002 50.7914 58.0019 50.9755 57.9247C51.1541 57.8366 51.3491 57.7687 51.5488 57.7024C51.7485 57.6338 51.9591 57.5955 52.1658 57.5417C52.3756 57.5089 52.5878 57.477 52.7953 57.4567C53.0044 57.445 53.2111 57.4395 53.4076 57.4403C53.6073 57.4512 53.7984 57.4684 53.9778 57.4855C54.1596 57.5066 54.3265 57.5479 54.481 57.5784C54.6339 57.6135 54.7735 57.6431 54.8952 57.6899C55.0161 57.7313 55.1214 57.7718 55.2064 57.8046C55.3757 57.8701 55.4708 57.9169 55.4708 57.9169C55.4708 57.9169 55.3632 57.9317 55.1822 57.9442C55.0917 57.9512 54.9825 57.9606 54.8585 57.9637C54.7368 57.9645 54.5964 57.9809 54.4451 57.9934C54.2953 58.0066 54.1338 58.0066 53.9646 58.0253C53.7945 58.0441 53.6182 58.0612 53.4349 58.0745C53.2532 58.0987 53.0675 58.1267 52.8756 58.1478C52.6884 58.1798 52.4989 58.2118 52.3078 58.2453C52.2126 58.2656 52.119 58.2874 52.0254 58.3069C51.9302 58.3272 51.8366 58.3428 51.7461 58.3701C51.6541 58.3951 51.5621 58.4177 51.4716 58.4395C51.3795 58.4598 51.2961 58.4934 51.2071 58.5168C51.0309 58.5643 50.8655 58.6228 50.7048 58.6751C50.6237 58.6993 50.5496 58.7336 50.4747 58.7586C50.3998 58.7859 50.3257 58.8093 50.2578 58.8397C50.1198 58.8935 49.9918 58.9442 49.8811 58.9934C49.7656 59.0394 49.6697 59.087 49.5854 59.1228C49.5082 59.1626 49.4396 59.1892 49.3982 59.2126C49.353 59.2344 49.3296 59.2461 49.3296 59.2461Z" fill="black"/>
<path d="M68.5628 62.458C68.5628 62.458 68.5012 62.373 68.3678 62.2466C68.2984 62.1866 68.218 62.1062 68.115 62.0313C68.0129 61.9541 67.8912 61.8738 67.757 61.7919C67.6205 61.7107 67.4676 61.6319 67.3007 61.5578C67.1322 61.4869 66.9543 61.4112 66.7617 61.3589C66.5729 61.2942 66.3709 61.2513 66.1649 61.2107C65.959 61.1678 65.7453 61.1569 65.5331 61.1319C65.3194 61.1249 65.1072 61.1202 64.8974 61.1273C64.6883 61.1421 64.4832 61.1631 64.2858 61.1889C64.0908 61.2255 63.9036 61.2669 63.7265 61.3067C63.5518 61.3504 63.3911 61.4135 63.2421 61.4642C63.0939 61.5181 62.9582 61.5656 62.8451 61.6265C62.7297 61.6834 62.6314 61.7373 62.5518 61.7809C62.3896 61.8683 62.303 61.9252 62.303 61.9252C62.303 61.9252 62.4114 61.9276 62.5924 61.9174C62.6821 61.912 62.7921 61.9065 62.9161 61.8948C63.0378 61.88 63.1774 61.8777 63.3295 61.8699C63.4793 61.8644 63.6392 61.8441 63.8116 61.8402C63.9816 61.8371 64.1587 61.8324 64.3412 61.8223C64.5253 61.8238 64.7149 61.827 64.906 61.8223C65.0963 61.8293 65.2882 61.8387 65.4824 61.8465C65.5784 61.855 65.6743 61.8628 65.7702 61.8706C65.8654 61.8792 65.9614 61.8823 66.0557 61.8987C66.1493 61.9128 66.243 61.9221 66.3358 61.9323C66.4294 61.9408 66.5191 61.9627 66.608 61.9752C66.7898 61.9993 66.9606 62.0368 67.1275 62.068C67.211 62.0805 67.2874 62.1054 67.3654 62.1203C67.4434 62.1382 67.5207 62.1522 67.5909 62.1725C67.7344 62.21 67.8686 62.2427 67.9856 62.277C68.1057 62.309 68.2063 62.3433 68.2921 62.3683C68.3756 62.3979 68.4466 62.4151 68.4918 62.433C68.5378 62.4486 68.5628 62.458 68.5628 62.458Z" fill="black"/>
<path d="M73.7921 68.3945C73.7921 68.3945 74.147 67.7401 74.8225 66.492C77.3498 61.8172 78.4169 56.332 77.0534 51.1962C76.3202 48.4349 74.81 47.0917 73.5807 46.4403C72.3209 45.7742 66.5923 42.1564 63.1539 41.1119C56.9471 39.2265 50.3371 41.1891 45.6927 44.4138C41.0484 47.6385 34.9898 58.2033 40.0133 58.3118C45.0367 58.421 52.6725 51.3538 50.4034 53.1752C47.1553 55.7836 50.3347 56.0598 57.6039 56.3086C64.8723 56.5567 69.182 54.0278 69.182 54.0278C69.182 54.0278 68.9082 56.2525 69.9792 59.5481C71.0494 62.8446 74.0198 66.5989 74.0198 66.5989" fill="#361710"/>
<path d="M51.0348 83.7268L52.8024 128.65C52.8024 128.65 52.7501 136.808 46.5699 138.763C40.3896 140.718 37.5464 140.131 37.5464 140.131C37.5464 140.131 44.2641 111.175 42.917 104.69C41.5698 98.2058 39.5058 87.8454 39.5058 87.8454L51.0348 83.7268Z" fill="#122738"/>
<path d="M66.5076 83.6066L63.9038 128.65C63.9038 128.65 63.9561 136.808 70.1363 138.763C76.3166 140.718 79.1598 140.131 79.1598 140.131C79.1598 140.131 72.4413 111.175 73.7885 104.69C75.1364 98.2058 77.2003 87.8461 77.2003 87.8461L66.5076 83.6066Z" fill="#122738"/>
<path d="M84.1383 96.4705C84.1383 96.4705 96.608 111.235 96.6307 115.88C96.6525 120.526 90.1111 119.06 90.1111 119.06L78.2927 102.191L84.1383 96.4705Z" fill="#EDAC7C"/>
<path d="M84.1383 96.4705L78.2927 102.19L82.9909 108.896C82.9909 108.896 85.7772 104.741 90.8256 105.054C87.5627 100.526 84.1383 96.4705 84.1383 96.4705Z" fill="#CF9166"/>
<path d="M38.7879 97.8728C38.7879 97.8728 22.1287 107.668 17.5467 106.905C12.964 106.142 15.5147 99.9422 15.5147 99.9422L34.1389 91.1449L38.7879 97.8728Z" fill="#EDAC7C"/>
<path d="M24.9819 104.947C31.2994 102.275 38.7878 97.8739 38.7878 97.8739L34.1387 91.146L24.9772 95.4729C24.9772 95.4729 28.3742 102.86 24.9819 104.947" fill="#CF9166"/>
<path d="M93.813 119.147C93.8465 119.128 93.8801 119.108 93.9136 119.087C95.2249 118.294 96.1905 117.012 96.8505 115.627C98.2553 112.68 98.9979 109.266 100.067 106.174C100.898 103.765 101.653 101.168 102.672 98.744C102.516 98.673 102.369 98.5817 102.239 98.4593C100.943 97.2463 100.306 96.4234 98.8146 95.4592C98.3871 99.1808 93.164 106.487 90.9838 112.294C90.5532 113.441 90.178 114.629 90.1359 115.854C90.0579 118.158 91.3098 120.594 93.813 119.147Z" fill="#EEC9B1"/>
<path d="M91.0444 120.104C91.6942 120.494 92.7753 120.781 94.2621 119.923L94.3775 119.855C95.7122 119.047 96.8463 117.718 97.6599 116.013C98.6108 114.018 99.2645 111.828 99.8971 109.71C100.218 108.63 100.552 107.514 100.913 106.467C101.168 105.732 101.414 104.979 101.663 104.22C102.224 102.512 102.803 100.747 103.498 99.0909L103.836 98.2859L103.041 97.9263C102.963 97.8912 102.902 97.8522 102.852 97.8054C102.509 97.484 102.212 97.1899 101.934 96.9146C101.147 96.1345 100.468 95.4606 99.3011 94.7063L98.0889 93.9224L97.9236 95.3568C97.7044 97.2718 95.9844 100.434 94.1638 103.783C92.6684 106.531 91.124 109.372 90.145 111.979C89.7238 113.1 89.287 114.433 89.2402 115.824C89.1754 117.728 89.8837 119.407 91.0444 120.104Z" fill="#EDAC7C"/>
<path d="M101.756 96.2612C101.757 96.2557 102.747 93.2666 103.128 93.1504C103.511 93.0342 104.19 93.3056 104.19 93.3056L103.045 97.5919C103.045 97.5919 104.641 94.0037 105.264 93.6956C105.886 93.3867 106.582 93.7128 106.582 93.7128L104.678 98.6481C104.678 98.6481 105.804 95.0833 106.469 94.5225C107.136 93.9632 107.924 94.2011 107.924 94.2011L106.317 99.5233L106.173 98.8501C106.173 98.8501 107.271 96.9648 107.944 96.8212C108.615 96.6762 109.262 96.8384 109.262 96.8384C109.262 96.8384 108.054 98.7565 107.533 99.989C107.011 101.221 106.066 101.449 106.066 101.449C103.947 100.8 102.139 99.2175 100.397 97.8649C99.0496 96.8181 98.0886 93.9218 98.0886 93.9218C98.0886 93.9218 99.9163 92.2307 101.756 96.2612Z" fill="#EDAC7C"/>
<path d="M15.9669 105.053C15.9419 105.023 15.9169 104.994 15.8928 104.963C14.931 103.77 14.4606 102.236 14.3124 100.708C13.9981 97.4592 14.4645 93.9958 14.5152 90.7243C14.555 88.1767 14.7321 85.477 14.6018 82.8514C14.7719 82.8381 14.9419 82.8022 15.1057 82.732C16.7375 82.0331 17.6174 81.4777 19.3483 81.0807C18.4802 84.7243 20.8959 93.3741 20.9646 99.5762C20.9778 100.802 20.9248 102.047 20.5465 103.213C19.8343 105.405 17.8257 107.269 15.9669 105.053Z" fill="#EEC9B1"/>
<path d="M18.2427 106.898C17.4986 107.043 16.3854 106.944 15.2801 105.63L15.1943 105.525C14.2154 104.312 13.6023 102.676 13.4197 100.794C13.2068 98.5954 13.3402 96.3138 13.4689 94.1071C13.5344 92.9822 13.6023 91.8192 13.6194 90.7108C13.6311 89.9339 13.6561 89.1421 13.681 88.3441C13.7372 86.5469 13.7949 84.6897 13.7068 82.8956L13.6631 82.0235L14.5336 81.9572C14.6187 81.9517 14.6896 81.9353 14.7528 81.908C15.1857 81.7239 15.5633 81.5484 15.9198 81.3839C16.9252 80.9189 17.7934 80.518 19.1476 80.2068L20.5547 79.8831L20.2209 81.2887C19.7731 83.1631 20.3114 86.7232 20.88 90.4916C21.3473 93.5844 21.8301 96.7826 21.8613 99.5681C21.8746 100.765 21.8301 102.166 21.3995 103.489C20.8106 105.301 19.5719 106.639 18.2427 106.898Z" fill="#EDAC7C"/>
<path d="M16.3098 80.8311C16.3098 80.8249 16.4002 77.6774 16.0812 77.4379C15.7606 77.1985 15.0297 77.2211 15.0297 77.2211L14.6436 81.6416C14.6436 81.6416 14.3682 77.7242 13.8877 77.2219C13.408 76.7195 12.6428 76.7882 12.6428 76.7882L12.7481 82.0768C12.7481 82.0768 12.9064 78.342 12.472 77.5885C12.0375 76.835 11.2153 76.789 11.2153 76.789L10.9096 82.3405L11.2746 81.757C11.2746 81.757 10.8854 79.6111 10.3027 79.2453C9.71999 78.8802 9.05774 78.8116 9.05774 78.8116C9.05774 78.8116 9.53824 81.0277 9.60767 82.3639C9.67709 83.7001 10.4875 84.236 10.4875 84.236C12.7021 84.3499 14.9408 83.4786 17.0407 82.8007C18.6639 82.2773 20.5547 79.8826 20.5547 79.8826C20.5547 79.8826 19.4143 77.6696 16.3098 80.8311Z" fill="#EDAC7C"/>
<path d="M77.2004 87.8452C77.2004 87.8452 87.3541 95.9615 89.7754 100.713L79.1013 108.418L71.0225 96.4709L77.2004 87.8452Z" fill="#122738"/>
<path d="M39.5073 87.8445C39.5073 87.8445 30.7748 92.1237 25.5579 94.8929L30.2631 106.41L45.1743 100.912L39.5073 87.8445Z" fill="#122738"/>
<path d="M59.8589 246.381C58.4142 246.683 56.1864 245.84 54.514 248.428C52.9025 250.923 49.1138 250.884 48.8408 250.878C51.372 251.203 54.3643 251.044 55.1233 249.94C56.2777 248.261 59.0609 247.923 59.0609 247.923C60.6701 247.923 61.9595 246.595 61.9104 244.987C61.9072 244.894 61.9049 244.792 61.9026 244.695C61.3823 245.408 60.6389 246.219 59.8589 246.381Z" fill="#1C0906"/>
<path d="M212.752 46.0731L213.953 46.499C215.23 46.9507 215.897 48.3516 215.446 49.6278L215.009 50.8602C214.557 52.1356 213.156 52.8041 211.88 52.3517L210.679 51.9265C209.403 51.4741 208.735 50.0732 209.187 48.797L209.623 47.5653C210.075 46.2892 211.476 45.6215 212.752 46.0731ZM226.626 13.2678C229.748 14.3731 231.713 16.3295 232.521 19.1353C233.169 21.3529 233.071 23.6525 232.227 26.0347C230.816 30.0184 227.67 33.1682 222.788 35.4833C221.086 36.2907 219.9 37.5106 219.228 39.1456C218.991 39.6854 218.751 40.2938 218.511 40.9717C218.06 42.2478 216.659 42.9155 215.383 42.4639L214.182 42.038C212.906 41.5863 212.237 40.1854 212.69 38.9093C213.977 35.2743 215.827 32.8913 218.24 31.7571C220.846 30.5309 222.865 29.0394 224.297 27.2812C225.122 26.2562 225.765 25.0963 226.223 23.803C226.695 22.4684 226.769 21.3155 226.443 20.3451C226.097 19.2289 225.27 18.5307 223.96 18.2515C222.738 17.9808 221.609 18.4941 220.571 19.7905C220.52 19.8529 220.468 19.9169 220.418 19.9832C219.676 20.945 218.336 21.2125 217.279 20.6142L216.242 20.0284C214.958 19.303 214.598 17.6126 215.478 16.4301C216.353 15.2554 217.407 14.31 218.641 13.5939C219.978 12.8193 221.576 12.4839 223.435 12.5876C224.412 12.6344 225.476 12.8606 226.626 13.2678Z" fill="#FCC822"/>
<path d="M128.843 49.6979L130.598 50.0411C132.464 50.4062 133.68 52.2151 133.315 54.0794L132.963 55.8813C132.598 57.7464 130.79 58.9624 128.924 58.5974L127.168 58.2542C125.303 57.8891 124.087 56.081 124.452 54.2159L124.804 52.414C125.169 50.5489 126.977 49.3321 128.843 49.6979ZM141.358 1.27391C145.921 2.16705 149.054 4.47909 150.755 8.20923C152.111 11.1562 152.449 14.3708 151.767 17.8528C150.627 23.6782 146.905 28.7001 140.602 32.9216C138.404 34.3936 137.007 36.3327 136.411 38.7407C136.192 39.5403 135.985 40.435 135.792 41.4256C135.427 43.2907 133.619 44.5075 131.753 44.1417L129.997 43.7985C128.131 43.4334 126.915 41.6253 127.28 39.7602C128.321 34.4458 130.399 30.7539 133.517 28.6829C136.884 26.4434 139.382 23.9551 141.009 21.2179C141.944 19.6243 142.597 17.8817 142.967 15.9901C143.349 14.0392 143.213 12.423 142.56 11.1414C141.851 9.66322 140.559 8.86368 138.68 8.7459C136.928 8.62109 135.464 9.56572 134.291 11.5806C134.233 11.6781 134.174 11.7779 134.117 11.8801C133.285 13.3692 131.479 14.0158 129.887 13.4035L128.326 12.8029C126.394 12.0595 125.545 9.78569 126.525 7.96196C127.498 6.14993 128.768 4.61949 130.334 3.37143C132.031 2.0204 134.182 1.22554 136.786 0.986851C138.152 0.849564 139.676 0.944733 141.358 1.27391Z" fill="#FCC822"/>
<path d="M100.524 80.886L101.759 80.5693C103.069 80.2323 104.405 81.0225 104.742 82.333L105.067 83.5997C105.404 84.9102 104.614 86.2464 103.303 86.5826L102.068 86.9001C100.757 87.2363 99.421 86.4469 99.0848 85.1349L98.7596 83.8689C98.4226 82.5584 99.2128 81.223 100.524 80.886ZM93.7385 45.9192C96.946 45.0955 99.6675 45.6228 101.905 47.4996C103.678 48.9793 104.88 50.9419 105.508 53.3904C106.56 57.4841 105.706 61.8538 102.946 66.4982C101.983 68.1175 101.679 69.7923 102.034 71.5232C102.138 72.1035 102.279 72.7424 102.458 73.439C102.795 74.7502 102.005 76.0856 100.693 76.4218L99.4593 76.7393C98.148 77.0755 96.8126 76.2861 96.4756 74.9749C95.5169 71.24 95.7221 68.2291 97.0918 65.9436C98.5716 63.4716 99.4148 61.1073 99.6223 58.8491C99.7354 57.5379 99.6215 56.2173 99.2806 54.8881C98.9281 53.5168 98.3461 52.5191 97.5333 51.8951C96.6246 51.1618 95.5489 51.0441 94.3048 51.5433C93.1402 52.0004 92.4888 53.0558 92.3516 54.7102C92.3438 54.7914 92.3367 54.8725 92.3313 54.9559C92.2525 56.1689 91.2899 57.1377 90.0785 57.2313L88.8913 57.3234C87.4209 57.4365 86.1791 56.2352 86.2501 54.7625C86.3211 53.2999 86.6682 51.9271 87.293 50.6447C87.9709 49.2562 89.1097 48.0861 90.7104 47.1353C91.5473 46.6283 92.5559 46.2226 93.7385 45.9192Z" fill="#FCC822"/>
<path d="M289.534 81.0527L290.769 80.736C292.079 80.399 293.415 81.1892 293.752 82.4997L294.077 83.7665C294.414 85.0777 293.624 86.4131 292.313 86.7501L291.078 87.0668C289.767 87.4038 288.431 86.6136 288.095 85.3024L287.769 84.0364C287.432 82.7259 288.223 81.3897 289.534 81.0527ZM282.748 46.0867C285.956 45.263 288.677 45.7903 290.915 47.6671C292.688 49.1468 293.89 51.1094 294.518 53.5571C295.57 57.6516 294.716 62.0213 291.956 66.6657C290.993 68.285 290.689 69.959 291.044 71.6907C291.148 72.271 291.289 72.9099 291.468 73.6057C291.805 74.9169 291.014 76.2531 289.704 76.5893L288.469 76.9068C287.158 77.243 285.822 76.4536 285.486 75.1424C284.527 71.4075 284.732 68.3966 286.102 66.1103C287.581 63.6391 288.425 61.2748 288.632 59.0159C288.745 57.7046 288.631 56.3848 288.291 55.0556C287.938 53.6835 287.356 52.6866 286.543 52.0626C285.634 51.3293 284.559 51.2116 283.315 51.7108C282.151 52.1671 281.499 53.2225 281.361 54.8777C281.354 54.9581 281.347 55.04 281.342 55.1235C281.262 56.3356 280.3 57.3052 279.088 57.3988L277.901 57.4909C276.432 57.604 275.189 56.4019 275.26 54.93C275.331 53.4667 275.678 52.0938 276.303 50.8114C276.981 49.4229 278.12 48.2537 279.72 47.3028C280.557 46.7958 281.567 46.3901 282.748 46.0867Z" fill="#FCC822"/>
<path d="M149.729 127.379L154.931 105.405L145.47 105.048L140.498 125.332C140.147 126.763 140.229 128.267 140.732 129.651L149.775 154.535L160.605 153.49L149.729 127.379Z" fill="#A7A6BB"/>
<path d="M145.45 124.446C146.415 122.506 147.352 120.772 148.26 119.243C149.516 117 151.105 115.098 153.011 113.519L154.932 105.406L145.469 105.049L140.498 125.333C140.253 126.333 140.232 127.366 140.405 128.371C142.519 127.909 144.412 126.534 145.45 124.446Z" fill="#727293"/>
<path d="M158.948 199.87L158.718 200.938L157.508 206.55L152.154 231.391L151.57 234.09L151.44 234.698L150.363 246.496L149.095 246.88C145.875 247.858 142.585 247.647 139.715 246.469C138.539 245.987 137.341 244.813 136.505 243.88C135.559 242.823 134.794 241.61 134.201 240.322C132.498 236.619 132.105 232.401 132.016 228.375C131.985 227.013 131.993 225.652 131.993 224.29V210.942V199.271V195.031C132.977 195.031 134.08 194.908 134.87 194.854C135.58 194.808 136.857 194.57 137.589 194.57C140.458 193.586 143.417 193.855 146.186 193.518C147.501 193.358 148.774 193.281 149.972 193.232C151.642 193.165 153.169 193.265 154.471 193.588C157.204 194.268 158.948 196.062 158.948 199.87Z" fill="#1C1B2D"/>
<path d="M180.428 236.906L151.942 246.019L150.363 246.497L149.094 246.88C145.874 247.858 142.585 247.648 139.714 246.47C138.966 246.049 138.26 245.559 137.605 245.009C137.6 245.006 137.598 245.001 137.593 244.996C135.387 242.959 133.844 240.206 133.313 237.103L149.797 232.104L152.153 231.392L176.644 224.427L180.428 236.906Z" fill="#1C1B2D"/>
<path d="M195.514 238.962C195.148 237.373 194.508 235.405 194.366 234.784C193.822 232.403 193.017 230.078 192.333 227.734C192.083 226.876 191.777 226.284 191.672 226.096C191.619 226.01 191.626 226.014 191.672 226.096C191.748 226.221 191.948 226.529 192.339 227.064C191.623 226.086 191.049 225.165 190.576 224.055C190.042 222.802 189.632 221.548 189.324 220.299L171.713 225.558L175.7 238.913L183.963 236.446C184.473 236.294 185.009 236.583 185.162 237.093L186.012 239.942C186.275 240.824 186.655 241.639 187.113 242.391C187.592 242.224 188.081 242.084 188.581 241.976C190.765 241.506 192.846 240.733 194.936 239.985C195.114 239.637 195.304 239.295 195.514 238.962Z" fill="#361710"/>
<path d="M179.285 227.616C180.833 227.154 182.463 228.035 182.925 229.582C183.387 231.13 182.507 232.759 180.959 233.222C179.412 233.684 177.782 232.804 177.32 231.256C176.858 229.709 177.738 228.079 179.285 227.616Z" fill="white"/>
<path d="M186.088 240.174C187.835 245.567 193.576 248.605 199.035 246.975C199.545 246.822 199.835 246.286 199.683 245.777L197.034 236.906L186.088 240.174Z" fill="white"/>
<path d="M195.468 247.399C196.641 247.462 197.845 247.331 199.035 246.975C199.545 246.823 199.835 246.286 199.683 245.777L192.124 220.468C191.973 219.958 191.436 219.668 190.926 219.821L187.535 220.833L195.468 247.399Z" fill="white"/>
<path d="M180.135 157.07L178.6 160.214L170.555 176.691L157.315 203.812L132.341 193.698L139.988 176.31L145.472 163.846L153.87 144.752L180.135 157.07Z" fill="#A7A6BB"/>
<path d="M175.652 162.472C175.373 162.472 174.846 162.089 174.215 161.555C172.841 168.778 165.769 174.438 158.424 174.438C152.172 174.438 147.057 170.876 144.391 165.785L138.877 178.838L144.718 187.733C145.956 189.57 148.38 190.186 150.347 189.162L169.443 179.22L177.488 162.744C176.897 162.564 176.277 162.472 175.652 162.472Z" fill="#727293"/>
<path d="M167.486 166.437C166.04 166.437 164.663 166.228 163.354 165.872L147.326 198.702L132.739 192.794L132.341 193.698L157.314 203.812L177.241 162.998C174.446 165.139 170.999 166.437 167.486 166.437Z" fill="#727293"/>
<path d="M184.966 135.133C184.966 135.133 188.842 132.875 190.33 135.978C191.818 139.081 185.784 144.381 181.903 141.007L184.966 135.133Z" fill="#EDAC7C"/>
<path d="M183.805 137.359L182.227 140.383C185.846 142.649 190.252 138.112 188.759 136.639C187.554 135.448 184.989 136.631 183.805 137.359Z" fill="#F7A588"/>
<path d="M188.936 138.016C188.936 138.016 188.938 137.988 188.945 137.938C188.951 137.888 188.955 137.815 188.962 137.725C188.967 137.546 188.956 137.28 188.83 137.041C188.799 136.981 188.757 136.927 188.711 136.876C188.686 136.851 188.662 136.826 188.633 136.801L188.614 136.785L188.613 136.783C188.627 136.797 188.616 136.787 188.619 136.789L188.616 136.787L188.608 136.782L188.595 136.771L188.54 136.731C188.501 136.7 188.469 136.681 188.438 136.663C188.408 136.644 188.374 136.625 188.334 136.606C188.298 136.588 188.26 136.569 188.221 136.556C188.181 136.539 188.143 136.522 188.1 136.511C187.772 136.406 187.382 136.395 186.99 136.438C186.792 136.456 186.595 136.495 186.399 136.536C186.205 136.579 186.012 136.626 185.827 136.678C185.455 136.783 185.108 136.9 184.809 137.001C184.207 137.216 183.805 137.359 183.805 137.359C183.805 137.359 183.881 137.282 184.026 137.161C184.172 137.041 184.386 136.877 184.661 136.705C184.799 136.621 184.95 136.529 185.116 136.445C185.282 136.36 185.463 136.276 185.654 136.2C186.037 136.049 186.466 135.92 186.92 135.871C187.148 135.848 187.379 135.841 187.611 135.867C187.842 135.892 188.073 135.949 188.282 136.042C188.336 136.064 188.385 136.09 188.436 136.118C188.487 136.143 188.533 136.175 188.579 136.206C188.625 136.236 188.669 136.27 188.714 136.308C188.759 136.346 188.802 136.381 188.829 136.413L188.877 136.466L188.907 136.497L188.933 136.529C188.968 136.569 188.997 136.612 189.024 136.657C189.076 136.747 189.115 136.838 189.139 136.927C189.192 137.107 189.187 137.274 189.166 137.412C189.148 137.549 189.108 137.662 189.073 137.75C189.038 137.839 189 137.905 188.976 137.949C188.95 137.993 188.936 138.016 188.936 138.016Z" fill="#CF9166"/>
<path d="M161.357 125.36C161.357 125.36 160.211 121.025 156.966 122.168C153.719 123.311 154.243 131.326 159.374 131.683L161.357 125.36Z" fill="#EDAC7C"/>
<path d="M160.605 127.757L159.584 131.011C155.424 130.058 155.513 123.735 157.61 123.747C159.304 123.756 160.283 126.406 160.605 127.757Z" fill="#F7A588"/>
<path d="M156.512 124.596C156.512 124.596 156.528 124.575 156.56 124.535C156.591 124.495 156.638 124.441 156.699 124.373C156.821 124.241 157.016 124.06 157.275 123.981C157.339 123.961 157.407 123.952 157.478 123.949C157.512 123.95 157.547 123.947 157.581 123.951L157.609 123.954H157.611C157.59 123.953 157.607 123.953 157.603 123.953L157.606 123.954L157.616 123.954L157.632 123.957L157.701 123.967C157.749 123.972 157.786 123.982 157.82 123.991C157.856 123.997 157.893 124.009 157.934 124.025C157.973 124.036 158.011 124.051 158.049 124.068C158.088 124.085 158.127 124.1 158.166 124.123C158.473 124.279 158.757 124.547 159.004 124.855C159.13 125.008 159.243 125.174 159.353 125.342C159.46 125.51 159.563 125.68 159.657 125.847C159.845 126.185 160.008 126.512 160.149 126.794C160.423 127.373 160.605 127.758 160.605 127.758C160.605 127.758 160.606 127.649 160.589 127.461C160.572 127.275 160.536 127.005 160.462 126.69C160.425 126.532 160.382 126.361 160.323 126.184C160.265 126.006 160.199 125.819 160.117 125.63C159.953 125.254 159.741 124.86 159.455 124.503C159.311 124.326 159.149 124.157 158.967 124.012C158.786 123.866 158.584 123.744 158.369 123.662C158.316 123.638 158.261 123.623 158.207 123.607C158.153 123.589 158.099 123.577 158.042 123.568C157.991 123.557 157.935 123.55 157.875 123.545C157.817 123.539 157.761 123.535 157.719 123.539L157.65 123.54L157.606 123.542L157.566 123.546C157.512 123.55 157.459 123.56 157.408 123.572C157.31 123.6 157.218 123.637 157.136 123.682C156.973 123.773 156.859 123.895 156.776 124.005C156.69 124.116 156.641 124.223 156.602 124.312C156.564 124.4 156.545 124.473 156.531 124.521C156.518 124.57 156.512 124.596 156.512 124.596Z" fill="#CF9166"/>
<path d="M171.779 141.567L165.388 138.921C165.388 138.921 160.999 148.828 160.976 148.818C160.976 148.818 160.619 151.008 163.436 152.226C166.254 153.443 167.816 151.649 167.816 151.649C167.815 151.584 171.779 141.567 171.779 141.567Z" fill="#EDAC7C"/>
<path d="M169.725 146.885L162.901 144.515C162.901 144.515 161.378 148.002 161.353 147.992C161.353 147.992 161.091 149.743 163.907 150.962C166.726 152.179 168.195 150.672 168.195 150.672C168.194 150.607 169.725 146.885 169.725 146.885Z" fill="#CF9166"/>
<path d="M171.017 143.407L164.626 140.761C164.626 140.761 164.016 142.006 163.492 143.063C163.415 143.216 165.137 144.254 165.323 144.368C166.785 145.264 168.409 145.7 170.092 145.943C170.502 144.809 171.017 143.407 171.017 143.407Z" fill="#CF9166"/>
<path d="M187.754 125.107C182.146 125.107 177.448 122.244 174.615 117.981H159.167C158.882 118.911 158.623 119.924 158.398 121.046C156.7 129.504 158.917 140.509 167.446 144.039C175.977 147.57 185.991 141.801 189.289 133.832C190.492 130.926 190.682 127.843 190.036 124.926C189.282 125.044 188.519 125.107 187.754 125.107Z" fill="#3E150D"/>
<path d="M187.728 132.956C189.412 128.452 189.237 123.469 185.563 119.93C183.695 118.129 181.342 116.882 178.938 115.933C176.564 114.994 173.989 114.107 171.418 114.044C166.813 113.932 166.539 116.227 164.457 120.115C164.252 120.495 160.782 121.336 160.603 121.728C160.192 122.63 159.749 123.502 159.403 124.434C158.625 126.53 158.097 128.736 157.959 130.975C157.791 133.69 158.241 136.461 159.557 138.892C160.305 140.275 161.312 141.513 162.485 142.566C164.424 144.305 166.476 145.463 169.029 146.009C170.76 146.379 172.547 146.502 174.295 146.272C177.197 145.892 179.82 144.521 181.92 142.549C183.686 140.889 185.085 138.867 186.18 136.72C186.78 135.544 187.314 134.319 187.698 133.057C187.708 133.023 187.716 132.989 187.728 132.956Z" fill="#EDAC7C"/>
<path d="M176.324 131.943C175.753 133.184 176.214 134.615 177.355 135.138C178.496 135.663 179.883 135.08 180.456 133.839C181.028 132.597 180.566 131.167 179.426 130.643C178.284 130.119 176.896 130.701 176.324 131.943Z" fill="#CF9166"/>
<path d="M176.499 131.046C175.927 132.287 176.389 133.718 177.529 134.243C178.671 134.767 180.059 134.184 180.631 132.943C181.203 131.703 180.742 130.271 179.601 129.747C178.46 129.224 177.07 129.805 176.499 131.046Z" fill="black"/>
<path d="M177.489 130.763C177.281 131.213 177.485 131.748 177.943 131.957C178.4 132.167 178.939 131.975 179.146 131.524C179.353 131.074 179.149 130.54 178.692 130.33C178.235 130.12 177.696 130.313 177.489 130.763Z" fill="white"/>
<path d="M163.459 127.187C162.888 128.429 163.349 129.859 164.49 130.383C165.631 130.907 167.02 130.323 167.591 129.084C168.162 127.843 167.701 126.412 166.561 125.887C165.42 125.365 164.031 125.945 163.459 127.187Z" fill="#CF9166"/>
<path d="M163.701 126.66C163.129 127.902 163.591 129.333 164.732 129.857C165.873 130.381 167.261 129.799 167.832 128.558C168.405 127.317 167.943 125.885 166.803 125.362C165.662 124.838 164.272 125.42 163.701 126.66Z" fill="black"/>
<path d="M164.69 126.379C164.484 126.828 164.686 127.363 165.144 127.573C165.602 127.784 166.141 127.59 166.349 127.14C166.555 126.69 166.353 126.155 165.894 125.945C165.437 125.736 164.898 125.929 164.69 126.379Z" fill="white"/>
<path d="M171.606 127.499C171.606 127.499 170.859 132.364 169.492 131.925C166.843 131.077 166.039 136.892 170.433 135.288C172.092 134.683 172.942 127.722 172.942 127.722L171.606 127.499Z" fill="#F48470"/>
<path d="M163.115 124.566C163.115 124.566 163.197 124.497 163.363 124.406C163.446 124.363 163.549 124.305 163.671 124.259C163.792 124.206 163.931 124.158 164.089 124.112C164.245 124.066 164.417 124.027 164.6 123.996C164.785 123.968 164.983 123.939 165.188 123.935C165.391 123.92 165.603 123.931 165.819 123.944C166.036 123.954 166.251 123.998 166.469 124.027C166.681 124.076 166.895 124.126 167.101 124.186C167.304 124.255 167.503 124.328 167.691 124.404C167.877 124.491 168.052 124.58 168.217 124.666C168.382 124.754 168.525 124.859 168.66 124.946C168.792 125.038 168.915 125.12 169.012 125.211C169.111 125.296 169.196 125.376 169.265 125.439C169.402 125.566 169.474 125.647 169.474 125.647C169.474 125.647 169.366 125.621 169.189 125.563C169.1 125.535 168.992 125.502 168.872 125.459C168.756 125.413 168.617 125.374 168.468 125.328C168.32 125.284 168.167 125.222 167.998 125.175C167.828 125.128 167.654 125.076 167.474 125.02C167.291 124.973 167.104 124.929 166.914 124.874C166.723 124.834 166.53 124.792 166.335 124.75C166.236 124.734 166.139 124.718 166.042 124.701C165.944 124.685 165.849 124.663 165.751 124.654C165.654 124.644 165.558 124.63 165.464 124.616C165.369 124.601 165.276 124.6 165.182 124.588C164.996 124.566 164.816 124.559 164.643 124.548C164.556 124.539 164.473 124.544 164.392 124.539C164.31 124.537 164.231 124.531 164.154 124.534C164.002 124.532 163.86 124.531 163.736 124.535C163.608 124.536 163.499 124.544 163.405 124.546C163.317 124.554 163.241 124.553 163.193 124.56C163.141 124.564 163.115 124.566 163.115 124.566Z" fill="black"/>
<path d="M182.83 128.546C182.83 128.546 182.783 128.449 182.67 128.297C182.61 128.225 182.543 128.129 182.452 128.036C182.362 127.939 182.253 127.837 182.132 127.729C182.009 127.624 181.868 127.518 181.712 127.413C181.554 127.312 181.387 127.204 181.202 127.117C181.022 127.019 180.825 126.94 180.624 126.863C180.423 126.782 180.209 126.735 179.999 126.671C179.784 126.627 179.57 126.585 179.356 126.555C179.142 126.533 178.93 126.519 178.727 126.51C178.524 126.513 178.327 126.521 178.141 126.532C177.956 126.544 177.783 126.579 177.623 126.604C177.464 126.633 177.319 126.658 177.193 126.7C177.067 126.737 176.958 126.774 176.869 126.804C176.69 126.864 176.592 126.906 176.592 126.906C176.592 126.906 176.701 126.928 176.886 126.948C176.979 126.96 177.09 126.973 177.217 126.983C177.344 126.99 177.485 127.012 177.64 127.031C177.793 127.052 177.958 127.059 178.132 127.086C178.305 127.112 178.485 127.139 178.672 127.161C178.858 127.194 179.049 127.232 179.243 127.26C179.434 127.3 179.627 127.343 179.822 127.386C179.918 127.411 180.013 127.436 180.109 127.461C180.203 127.487 180.3 127.505 180.393 127.539C180.485 127.569 180.578 127.597 180.67 127.622C180.763 127.647 180.85 127.685 180.938 127.714C181.117 127.77 181.284 127.838 181.447 127.899C181.529 127.926 181.602 127.965 181.678 127.994C181.755 128.025 181.83 128.054 181.897 128.086C182.036 128.148 182.166 128.205 182.278 128.261C182.394 128.314 182.49 128.366 182.572 128.407C182.652 128.452 182.72 128.483 182.763 128.508C182.807 128.532 182.83 128.546 182.83 128.546Z" fill="black"/>
<path d="M187.899 133.192C187.899 133.192 188.83 131.568 189.733 129.341C188.783 131.594 187.899 133.192 187.899 133.192Z" fill="#CF9166"/>
<path d="M189.144 117.267C188.226 117.359 187.271 117.338 186.353 117.357C184.149 117.405 181.943 117.341 179.738 117.381C178.426 117.405 177.116 117.463 175.808 117.565C175.696 117.574 172.661 117.884 172.755 117.845C170.493 118.154 168.239 118.548 165.985 118.894C165.111 119.028 164.253 119.101 163.403 119.14C165.954 119.68 169.258 119.523 171.562 119.299C171.438 119.337 171.328 119.366 171.194 119.412C168.813 120.221 170.781 122.87 174.958 124.651C180.739 127.115 185.977 126.139 185.977 126.139C185.977 126.139 185.043 127.835 184.84 130.822C184.702 132.867 185.208 135.371 185.541 136.748C185.695 137.381 185.811 137.777 185.811 137.777L185.051 139.144C185.051 139.144 186.732 136.303 189.729 132.605C195.976 124.901 195.318 120.43 194.112 118.256C192.419 118.168 190.736 117.848 189.144 117.267Z" fill="#361710"/>
<path d="M188.738 127.07C188.738 127.07 176.308 127.606 155.559 119.355C145.631 115.407 161.872 115.126 161.872 115.126L181.084 114.686L188.738 127.07Z" fill="#2D2C44"/>
<path d="M191.277 130.692C191.277 130.692 190.55 129.16 188.738 127.069C186.653 124.662 183.132 121.514 177.635 119.119C167.369 114.645 161.872 115.126 161.872 115.126C161.872 115.126 162.708 109.096 170.655 106.095C173.742 104.929 176.922 104.616 179.962 105.112C185.064 105.943 189.774 109.044 193.002 114.198C198.127 122.383 191.277 130.692 191.277 130.692Z" fill="#2D2C44"/>
<path d="M188.738 127.07C186.654 124.662 183.132 121.516 177.636 119.12C167.369 114.645 161.872 115.126 161.872 115.126C161.872 115.126 162.708 109.097 170.655 106.096C173.742 104.93 176.923 104.618 179.963 105.113C182.592 106.254 185.078 108.032 187.261 110.438C193.104 116.881 189.704 125.08 188.738 127.07Z" fill="#A7A6BB"/>
<path d="M186.92 135.87C186.92 135.87 178.405 139.227 174.92 141.792C174.005 142.466 173.514 144.752 170.525 144.752C166.823 144.752 167.406 142.984 164.98 141.309C163.622 140.372 160.743 139.422 159.927 138.245C158.132 135.658 158.145 127.339 158.145 127.339C158.145 127.339 155.677 133.79 157.557 139.912C158.365 142.542 159.391 149.382 168.523 149.72C177.16 150.039 178.507 147.38 180.192 145.644C181.877 143.909 186.92 135.87 186.92 135.87Z" fill="#361710"/>
<path d="M128.399 129.967L131.838 131.678C135.491 133.494 136.98 137.928 135.164 141.581L133.409 145.108C131.593 148.761 127.159 150.25 123.506 148.434L120.067 146.722C116.414 144.906 114.925 140.473 116.741 136.82L118.496 133.292C120.312 129.639 124.746 128.151 128.399 129.967Z" fill="#FCC822"/>
<path d="M136.861 152.699L135.667 150.071C135.369 149.191 135.259 148.258 135.341 147.333L135.872 141.422C135.943 140.651 135.703 139.882 135.207 139.286L130.447 133.566C130.143 133.201 129.57 133.246 129.326 133.653C129.181 133.896 129.198 134.201 129.369 134.425L131.576 137.318L129.53 135.693C129.134 135.378 128.545 135.545 128.372 136.02C128.269 136.304 128.349 136.622 128.573 136.823L131.768 139.708L128.751 137.749C128.336 137.478 127.776 137.666 127.606 138.133C127.479 138.483 127.621 138.874 127.943 139.063L130.714 140.677L127.76 139.691C127.404 139.572 127.017 139.758 126.889 140.112C126.771 140.436 126.91 140.798 127.214 140.96L128.914 141.866C130.042 142.469 130.65 143.733 130.414 144.99L129.861 147.94C129.548 149.613 129.884 151.341 130.801 152.774L132.3 155.114L136.861 152.699Z" fill="#EDAC7C"/>
<path d="M174.27 157.188L153.833 168.131C152.478 168.858 150.79 168.419 149.959 167.124L138.012 148.708L129.119 153.553L146.327 181.696C147.567 183.533 149.989 184.149 151.955 183.125L180.2 168.419C182.998 166.963 184.302 163.673 183.263 160.695C181.978 157.012 177.708 155.347 174.27 157.188Z" fill="#A7A6BB"/>
<path d="M162.207 193.611C162.207 204.744 153.183 213.771 142.046 213.771L122.553 212.031L108.627 210.787V207.537C108.627 199.845 114.862 193.611 122.553 193.611H162.207Z" fill="#2D2C44"/>
<path d="M122.153 193.612V247.706L109.936 245.179L108.377 207.538C108.377 199.846 114.281 193.612 122.153 193.612Z" fill="#2D2C44"/>
<path d="M101.289 238.001C95.6216 238.132 91.0677 242.763 91.0677 248.461C91.0677 248.993 91.4991 249.425 92.0311 249.425H101.289V238.001Z" fill="white"/>
<path d="M108.715 228.409V237.032C108.715 237.563 108.284 237.995 107.752 237.995H101.534C101.214 237.995 100.898 238.01 100.585 238.038V246.432H122.653V228.409H108.715Z" fill="#361710"/>
<path d="M118.513 235.077C118.513 236.691 117.204 238.001 115.589 238.001C113.974 238.001 112.664 236.691 112.664 235.077C112.664 233.461 113.974 232.151 115.589 232.151C117.204 232.151 118.513 233.461 118.513 235.077Z" fill="white"/>
<path d="M91.6828 244.922C91.2858 246.028 91.0674 247.219 91.0674 248.461C91.0674 248.993 91.4987 249.424 92.0307 249.424H121.689C122.221 249.424 122.653 248.993 122.653 248.461V244.922H91.6828Z" fill="white"/>
<path d="M181.846 36.8684C190.781 41.3115 195.95 47.8794 197.349 56.5683C198.479 63.4381 197.349 70.2814 193.958 77.1012C188.285 88.507 177.726 96.7855 162.28 101.937C156.893 103.732 152.9 106.953 150.296 111.597C149.388 113.126 148.452 114.859 147.487 116.801C145.67 120.453 141.236 121.942 137.584 120.125L134.144 118.414C130.491 116.598 129.002 112.164 130.818 108.512C135.994 98.1046 142.396 91.6466 150.026 89.1333C158.27 86.4133 164.854 82.6848 169.778 77.946C172.62 75.1792 174.963 71.9452 176.805 68.2408C178.705 64.4194 179.343 60.9973 178.72 57.9739C178.094 54.5105 175.873 52.1221 172.053 50.8085C168.498 49.5542 164.932 50.6767 161.358 54.179C161.18 54.3475 161.003 54.5207 160.827 54.6993C158.258 57.3085 154.153 57.6206 151.206 55.4466L148.318 53.3163C144.741 50.6782 144.277 45.4894 147.343 42.2725C150.388 39.0751 153.886 36.6313 157.836 34.9386C162.118 33.1086 167.022 32.6866 172.546 33.6734C175.452 34.1664 178.553 35.2303 181.846 36.8684Z" fill="#FCC822"/>
<path d="M167.534 142.134C167.775 142.134 167.982 141.97 168.043 141.737C168.283 140.807 169.122 140.118 170.127 140.118C171.134 140.118 171.971 140.807 172.212 141.737C172.272 141.97 172.48 142.134 172.721 142.134C173.059 142.134 173.325 141.818 173.243 141.489C172.891 140.092 171.634 139.057 170.127 139.057C168.62 139.057 167.364 140.092 167.012 141.489C166.929 141.818 167.195 142.134 167.534 142.134Z" fill="#F05B4E"/>
<path d="M176.892 141.203C176.401 138.869 174.749 136.941 172.534 136.097C172.118 135.939 171.645 136.014 171.315 136.312C170.949 136.642 170.549 136.995 170.127 136.995C169.684 136.995 169.265 136.623 168.884 136.278C168.559 135.984 168.097 135.902 167.683 136.051C165.688 136.767 164.099 138.369 163.411 140.41C163.198 141.042 163.508 141.774 164.147 141.966C164.772 142.153 165.39 141.802 165.578 141.216C166.218 139.222 168.127 137.83 170.314 137.956C172.502 138.083 174.239 139.685 174.644 141.739C174.747 142.254 175.179 142.636 175.702 142.666H175.703C176.472 142.666 177.051 141.955 176.892 141.203Z" fill="#361710"/>
<path d="M132.341 193.698C132.341 193.698 146.953 194.088 153.316 199.487C159.678 204.885 161.124 204.981 161.124 204.981C161.124 204.981 162.047 194.118 165.49 187.065C168.934 180.012 164.594 181.942 163.727 183.002C162.859 184.062 151.966 193.213 151.966 193.213L149.811 193.612L132.341 193.698Z" fill="#727293"/>
<path d="M218.985 86.8428C218.985 86.8428 218.023 90.5348 219.607 91.3772C221.193 92.2204 225.245 92.6619 225.286 91.3772C225.326 90.0933 226.45 88.8491 224.443 87.9661C222.436 87.0839 220.069 86.8428 220.069 86.8428H218.985Z" fill="#C9BDBD"/>
<path d="M257.776 43.558C257.735 43.5658 257.694 43.5744 257.652 43.5838C257.325 43.654 257.134 43.7203 257.134 43.7203V43.7351C257.056 43.7632 256.978 43.7881 256.902 43.8217C252.683 45.7078 252.683 49.5682 252.683 49.5682L255.286 57.2898C255.286 57.2898 256.014 57.3249 257.104 57.2251L257.028 92.195L257.407 92.4118C260.233 94.0335 263.706 94.0406 266.538 92.4282L266.95 92.195C266.95 92.195 267.455 78.1465 267.642 59.0527C267.802 42.7998 260.079 43.1072 257.776 43.558Z" fill="#161616"/>
<path d="M251.631 49.071L253.191 47.014C253.389 46.7535 253.755 46.6918 254.024 46.8775C255.728 48.0483 261.283 52.298 260.524 57.415L251.631 49.071Z" fill="white"/>
<path d="M245.083 81.6758C245.086 81.6555 246.678 81.4769 246.774 81.4597C248.165 81.2039 249.531 80.785 250.827 80.2187C254.835 78.4667 257.916 75.2342 259.44 71.1265C260.533 68.1764 260.841 64.9845 260.721 61.8573C260.548 57.2707 259.488 52.259 255.449 49.4555C252.009 47.0694 250.324 47.794 250.324 47.794C250.324 47.794 245.085 81.6641 245.083 81.6758Z" fill="#161616"/>
<path d="M246.019 75.8009L239.013 75.3563C239.013 75.3563 238.049 86.3104 238.022 86.3088C238.022 86.3088 238.398 88.5288 241.504 88.7753C244.61 89.0195 245.522 86.7831 245.522 86.7831C245.499 86.7207 246.019 75.8009 246.019 75.8009Z" fill="#F8D0B7"/>
<path d="M241.755 84.2877C239.455 84.1059 238.621 83.3009 238.343 82.8953C238.633 79.6808 239.013 75.3563 239.013 75.3563L246.019 75.8009C246.019 75.8009 245.82 79.9842 245.674 83.1878C245.483 83.4375 244.503 84.5038 241.755 84.2877Z" fill="#EFBDAC"/>
<path d="M243.023 79.3034L236.016 78.8588C236.016 78.8588 235.839 80.2551 235.683 81.4415C235.659 81.6139 237.653 82.046 237.87 82.0944C239.567 82.4743 241.27 82.3612 242.967 82.0421C242.988 80.8183 243.023 79.3034 243.023 79.3034Z" fill="#CF9166"/>
<path d="M227.554 59.2442C227.75 57.8362 227.899 56.6427 229.032 55.312C231.801 52.06 236.221 50.2035 240.463 50.2105C246.846 50.2215 253.463 52.6677 255.169 59.344C255.754 61.6303 255.768 64.0281 255.542 66.3776C255.186 70.0828 254.194 73.8278 251.958 76.8044C249.279 80.3707 244.852 82.5564 240.392 82.515C233.58 82.4519 228.129 78.7919 226.297 72.8504C224.978 68.5734 226.21 65.2232 227.228 61.064C227.388 60.408 227.475 59.8089 227.554 59.2442Z" fill="#F8D0B7"/>
<path d="M257.916 67.151C257.932 67.1713 257.952 67.1993 257.952 67.1993C257.952 67.1993 257.948 67.1697 257.941 67.1151C257.933 67.0621 257.921 66.9786 257.887 66.8772C257.852 66.7773 257.805 66.6518 257.71 66.5184C257.618 66.385 257.487 66.2344 257.278 66.1096C257.176 66.0457 257.055 65.9903 256.922 65.9435C256.855 65.9216 256.785 65.9014 256.711 65.8881L256.656 65.8764L256.594 65.867L256.499 65.853C256.441 65.8421 256.362 65.8366 256.28 65.8335C256.197 65.8273 256.118 65.8257 256.042 65.8288C255.963 65.8296 255.884 65.8319 255.806 65.8413C255.727 65.8491 255.647 65.8569 255.569 65.8717C255.479 65.8865 255.391 65.9123 255.302 65.9341C255.31 65.3351 255.289 64.736 255.23 64.1424C256.006 64.0324 256.875 64.1081 257.838 64.5121C261.898 66.2173 259.888 74.0005 253.483 74.3242C253.648 73.9802 253.797 73.6308 253.936 73.2774C257.367 72.2821 258.63 68.9022 257.916 67.151Z" fill="#F8D0B7"/>
<path d="M255.926 66.3644C255.983 66.352 256.04 66.3449 256.098 66.3379C256.157 66.3278 256.211 66.3231 256.262 66.3208C256.312 66.3169 256.364 66.313 256.433 66.3161L256.53 66.3169L256.554 66.3176H256.566H256.572C256.567 66.3169 256.589 66.3192 256.561 66.3161H256.563L256.6 66.3192C256.652 66.3215 256.699 66.3293 256.748 66.3348C256.844 66.3504 256.937 66.373 257.022 66.405C257.365 66.5361 257.597 66.7646 257.738 66.9269C257.809 67.0095 257.863 67.0758 257.898 67.1258C257.909 67.1421 257.909 67.1398 257.916 67.1507C258.63 68.9019 257.367 72.2818 253.936 73.2764C254.59 71.6102 254.976 69.8473 255.169 68.0922C255.224 67.5891 255.264 67.0844 255.287 66.5774C255.441 66.5119 255.596 66.4424 255.753 66.4027C255.81 66.3855 255.868 66.3754 255.926 66.3644Z" fill="#FFB7A1"/>
<path d="M255.806 65.842C255.885 65.8318 255.963 65.8295 256.041 65.8287C256.118 65.8256 256.197 65.8271 256.279 65.8334C256.362 65.8373 256.441 65.8427 256.499 65.8537L256.594 65.8677L256.655 65.8771L256.711 65.8888C256.784 65.902 256.855 65.9223 256.922 65.9441C257.056 65.9902 257.176 66.0463 257.279 66.1103C257.486 66.2351 257.618 66.3849 257.711 66.519C257.805 66.6524 257.852 66.7772 257.886 66.8778C257.921 66.9792 257.933 67.0619 257.942 67.1158C257.948 67.1704 257.951 67.1992 257.951 67.1992C257.951 67.1992 257.931 67.1719 257.917 67.1516C257.908 67.1407 257.91 67.1431 257.897 67.1259C257.864 67.0768 257.808 67.0104 257.739 66.9278C257.597 66.7655 257.365 66.537 257.021 66.4059C256.937 66.3739 256.843 66.3513 256.748 66.3357C256.699 66.3303 256.651 66.3225 256.601 66.3201L256.563 66.317H256.561C256.588 66.3201 256.566 66.3178 256.572 66.3186H256.566H256.554L256.531 66.3178L256.434 66.3162C256.364 66.3131 256.311 66.3178 256.261 66.3217C256.211 66.324 256.157 66.3287 256.098 66.3388C256.04 66.3459 255.983 66.3529 255.925 66.3654C255.868 66.3763 255.81 66.3864 255.754 66.4036C255.595 66.4434 255.442 66.5128 255.286 66.5783C255.297 66.3646 255.3 66.1501 255.303 65.9348C255.392 65.9129 255.479 65.8872 255.569 65.8724C255.647 65.8576 255.727 65.8498 255.806 65.842Z" fill="#FFA792"/>
<path d="M237.402 66.1273C237.402 66.1273 237.58 69.1905 236.16 68.8621C233.409 68.2303 233.089 74.1789 237.397 72.1851C239.023 71.4331 238.773 66.2412 238.773 66.2412L237.402 66.1273Z" fill="#F48470"/>
<path d="M232.655 74.2525C232.574 75.5287 231.457 76.4967 230.159 76.414C228.861 76.3313 227.873 75.2307 227.953 73.9546C228.035 72.6784 229.153 71.7112 230.451 71.7931C231.749 71.8758 232.736 72.9764 232.655 74.2525Z" fill="#FFB7A1"/>
<path d="M249.608 73.8346C249.527 75.1115 248.409 76.0787 247.109 75.996C245.813 75.9141 244.826 74.8143 244.906 73.5381C244.988 72.262 246.105 71.2948 247.402 71.3767C248.701 71.4586 249.689 72.56 249.608 73.8346Z" fill="#FFB7A1"/>
<path d="M228.474 64.2656C228.474 64.2656 228.54 64.179 228.684 64.0527C228.756 63.9903 228.845 63.9107 228.956 63.8374C229.064 63.7586 229.192 63.679 229.337 63.5987C229.481 63.5183 229.643 63.4396 229.817 63.3686C229.994 63.2999 230.182 63.2266 230.385 63.1767C230.584 63.1166 230.795 63.0792 231.011 63.0441C231.228 63.0051 231.451 63.0012 231.673 62.9809C231.894 62.9817 232.117 62.9832 232.335 62.9965C232.552 63.0191 232.765 63.0472 232.968 63.0792C233.17 63.1244 233.365 63.1736 233.546 63.2212C233.731 63.2726 233.895 63.3428 234.048 63.4006C234.2 63.4614 234.34 63.5144 234.457 63.5831C234.575 63.6455 234.676 63.7048 234.759 63.7524C234.922 63.8475 235.011 63.9107 235.011 63.9107C235.011 63.9107 234.898 63.9091 234.71 63.892C234.617 63.8842 234.503 63.8748 234.373 63.8592C234.248 63.8397 234.101 63.8327 233.944 63.8202C233.787 63.8101 233.621 63.7828 233.444 63.7742C233.266 63.7648 233.082 63.7547 232.891 63.7375C232.699 63.7321 232.504 63.7313 232.304 63.7204C232.106 63.7227 231.905 63.7243 231.703 63.7274C231.602 63.7321 231.501 63.7383 231.402 63.7438C231.302 63.75 231.202 63.7492 231.104 63.7625C231.005 63.7734 230.908 63.782 230.811 63.7898C230.713 63.7945 230.621 63.8155 230.525 63.8257C230.337 63.8452 230.156 63.8779 229.982 63.9045C229.895 63.9162 229.813 63.9396 229.732 63.9528C229.65 63.9684 229.571 63.9809 229.496 64.0012C229.345 64.0332 229.205 64.0644 229.082 64.0964C228.956 64.1252 228.849 64.158 228.757 64.1814C228.671 64.2095 228.596 64.2251 228.55 64.243C228.5 64.2578 228.474 64.2656 228.474 64.2656Z" fill="#161616"/>
<path d="M247.076 63.2471C247.076 63.2471 247.006 63.1628 246.859 63.0396C246.783 62.9819 246.693 62.9039 246.582 62.8336C246.47 62.7588 246.338 62.6831 246.193 62.6067C246.047 62.5318 245.882 62.46 245.703 62.3937C245.523 62.3313 245.334 62.2642 245.13 62.2221C244.93 62.1667 244.717 62.1363 244.5 62.1082C244.282 62.0762 244.059 62.0794 243.838 62.0661C243.615 62.0739 243.394 62.0833 243.176 62.1043C242.959 62.1332 242.747 62.1683 242.544 62.2081C242.344 62.2588 242.152 62.3141 241.971 62.368C241.792 62.4241 241.629 62.5006 241.476 62.5622C241.326 62.6285 241.189 62.6878 241.075 62.758C240.959 62.8243 240.859 62.8875 240.78 62.9374C240.617 63.0388 240.53 63.1043 240.53 63.1043C240.53 63.1043 240.643 63.1004 240.831 63.0762C240.924 63.0661 241.038 63.0528 241.166 63.0333C241.292 63.0084 241.437 62.9975 241.594 62.9787C241.749 62.9647 241.916 62.9327 242.093 62.9171C242.271 62.9031 242.454 62.8859 242.643 62.8625C242.835 62.8524 243.032 62.8438 243.231 62.8258C243.429 62.8212 243.629 62.818 243.831 62.8126C243.932 62.8149 244.033 62.8173 244.133 62.8196C244.232 62.8227 244.331 62.8188 244.431 62.8305C244.53 62.8383 244.628 62.843 244.725 62.8461C244.822 62.8493 244.917 62.8664 245.011 62.8734C245.201 62.8867 245.381 62.914 245.557 62.9358C245.644 62.9421 245.726 62.9647 245.808 62.9748C245.891 62.9873 245.971 62.9982 246.046 63.0138C246.197 63.0427 246.339 63.0684 246.462 63.0973C246.59 63.1215 246.697 63.1503 246.788 63.1706C246.877 63.1971 246.952 63.2104 247 63.226C247.049 63.2385 247.076 63.2471 247.076 63.2471Z" fill="#050607"/>
<path d="M242.62 66.2506C242.383 67.1258 242.903 68.0127 243.779 68.2319C244.655 68.4511 245.557 67.9199 245.791 67.0439C246.029 66.1695 245.51 65.281 244.633 65.0618C243.757 64.8434 242.855 65.3754 242.62 66.2506Z" fill="#050607"/>
<path d="M243.28 65.9572C243.195 66.2739 243.41 66.6023 243.762 66.6897C244.113 66.7786 244.467 66.5929 244.553 66.2755C244.638 65.9588 244.422 65.6304 244.07 65.543C243.719 65.4541 243.365 65.6405 243.28 65.9572Z" fill="white"/>
<path d="M233.307 65.8689C233.543 66.7442 233.024 67.6318 232.148 67.851C231.271 68.0702 230.37 67.539 230.134 66.663C229.898 65.7878 230.417 64.9001 231.293 64.6809C232.169 64.4625 233.071 64.9945 233.307 65.8689Z" fill="#050607"/>
<path d="M232.647 65.5764C232.732 65.8931 232.516 66.2214 232.165 66.3088C231.813 66.3977 231.459 66.2121 231.374 65.8938C231.288 65.5779 231.505 65.2495 231.856 65.1622C232.207 65.0732 232.561 65.2597 232.647 65.5764Z" fill="white"/>
<path d="M248.495 58.7517C248.495 58.7517 253.99 75.5686 248.962 80.5967C248.962 80.5967 256.265 76.5943 256.93 58.2416L248.495 58.7517Z" fill="#161616"/>
<path d="M255.902 62.2556C257.789 61.9521 257.921 53.9037 257.634 52.807C256.65 49.0347 251.265 46.7172 247.977 45.484C242.797 43.5424 236.286 43.2234 231.601 46.5877C229.091 48.3919 227.859 50.9302 226.688 53.697C226.472 54.2071 224.132 60.6393 224.118 60.6393C224.119 60.6393 241.953 61.5473 241.813 61.5395L243.498 61.6253C243.498 61.6253 254.575 62.4685 255.902 62.2556Z" fill="#161616"/>
<path d="M269.915 112.291H269.799C268.436 112.297 267.11 112.776 265.933 113.479C267.183 115.116 268.586 116.623 270.391 117.672C270.511 117.741 270.625 117.801 270.737 117.857C270.969 117.589 271.187 117.309 271.38 117.01C272.632 115.071 272.81 112.336 269.915 112.291Z" fill="#E8B79E"/>
<path d="M230.39 161.944C230.39 161.944 231.283 189.39 231.343 191.945C231.402 194.5 234.955 217.374 235.385 222.979C235.815 228.584 234.276 240.099 233.029 244.69L231.515 248.585C231.515 248.585 236.372 250.528 238.259 249.682C241.229 248.35 241.825 243.631 242.573 240.855C243.365 237.911 243.953 234.862 243.827 231.799C243.706 228.855 242.088 226.619 241.472 223.812C239.792 216.166 242.652 208.257 243.06 200.608C243.424 193.783 242.507 186.975 241.486 180.243C240.532 173.965 243.439 168.405 243.138 162.195C243.138 162.195 231.558 153.946 230.259 160.644" fill="#EFC8B1"/>
<path d="M232.494 246.065C232.419 246.402 233.41 246.761 233.635 246.862C235.271 247.603 237.865 248.318 239.212 246.658C240.857 244.636 241.235 241.129 241.932 238.689C242.721 235.926 243.542 232.749 243.297 229.847L243.182 228.48C243.182 228.48 247.03 230.831 246.788 234.094C246.546 237.359 243.263 242.831 243.058 246.246C242.932 248.349 241.908 250.442 240.19 251.691C237.563 253.601 233.027 253.465 230.219 252.025C229.181 251.492 228.362 249.017 229.722 248.392C231.418 247.612 234.162 239.641 233.875 239.373L233.029 244.69C233.029 244.69 232.494 246.062 232.494 246.065Z" fill="#122738"/>
<path d="M246.606 234.901C246.606 234.901 245.515 241.927 246.04 245.859L244.896 246.236L243.755 240.965L246.606 234.901Z" fill="#312E2F"/>
<path d="M256.433 234.901C256.433 234.901 255.511 245.419 256.037 249.352L254.365 249.398L253.582 240.965L256.433 234.901Z" fill="#0C1B26"/>
<path d="M239.093 161.944C239.093 161.944 241.11 189.39 241.169 191.945C241.229 194.5 244.781 217.374 245.212 222.979C245.642 228.584 244.103 240.099 242.856 244.69L241.342 248.585C241.342 248.585 246.199 250.528 248.086 249.682C251.056 248.35 251.652 243.631 252.4 240.855C253.192 237.911 253.779 234.862 253.654 231.799C253.533 228.855 251.914 226.619 251.297 223.812C249.619 216.166 252.478 208.257 252.886 200.608C253.251 193.783 252.333 186.975 251.312 180.243C250.359 173.965 253.265 168.405 252.965 162.195C252.965 162.195 240.262 153.946 238.963 160.644" fill="#F8D0B7"/>
<path d="M242.321 246.065C242.246 246.402 243.237 246.761 243.462 246.862C245.097 247.603 247.692 248.318 249.039 246.658C250.685 244.636 251.062 241.129 251.758 238.689C252.548 235.926 253.368 232.749 253.124 229.847L253.009 228.48C253.009 228.48 256.857 230.831 256.615 234.094C256.372 237.359 253.09 242.831 252.885 246.246C252.758 248.349 251.736 250.442 250.016 251.691C247.39 253.601 242.854 253.465 240.046 252.025C239.008 251.492 238.189 249.017 239.549 248.392C241.245 247.612 243.988 239.641 243.702 239.373L242.856 244.69C242.856 244.69 242.321 246.062 242.321 246.065Z" fill="#122738"/>
<path d="M251.932 102.975C252.887 98.4629 256.227 93.8505 256.432 92.8372C251.166 87.5766 246.466 85.7085 245.36 85.3637L238.812 85.3925C237.06 86.1047 235.295 86.7818 233.538 87.4791C232.877 87.7405 232.26 87.8785 231.843 88.4534C231.333 89.157 231.073 90.3629 230.737 91.1789C229.818 93.409 228.871 95.6727 228.417 98.0627C228.124 99.6056 228.489 101.268 229.114 102.975H251.932Z" fill="#F8D0B7"/>
<path d="M258.49 137.444C256.411 131.495 253.606 125.751 252.558 119.494C248.913 121.039 235.056 120.568 232.355 118.178C231.763 125.952 227.776 133.384 225.883 140.952C224.7 145.682 223.712 150.492 223.535 155.377C223.351 160.488 225.192 175.999 225.567 181.709C240.575 191.42 257.632 182.106 258.312 180.344C261.878 171.111 261.704 157.299 260.822 147.352C260.518 143.915 259.61 140.65 258.49 137.444Z" fill="#122738"/>
<path d="M225.883 140.952C225.804 141.265 225.73 141.58 225.654 141.894C230.987 144.748 251.775 146.465 259.627 141.041C259.29 139.83 258.905 138.632 258.489 137.443C256.492 131.73 253.83 126.202 252.694 120.23L249.515 120.157C246.231 120.537 241.498 120.444 237.763 119.891L233.4 119.792C233.4 119.792 231.828 131.704 226.767 137.85C226.443 138.883 226.142 139.916 225.883 140.952Z" fill="#0B1C28"/>
<path d="M238.332 96.7348C238.318 96.5101 238.291 96.2917 238.262 96.0725C238.256 96.0359 238.251 96.0008 238.244 95.9633C237.861 93.3923 236.389 91.241 234.499 89.8065C232.124 88.0888 229.595 86.6091 227.106 85.0701C222.108 82.0373 217.823 79.5958 212.767 76.6581C211.2 73.7658 209.608 70.8913 207.952 68.0629C207.115 66.6495 206.278 65.2368 205.338 63.8952C204.278 62.6596 203.506 61.229 202.75 59.7555C201.224 56.8389 199.909 53.7281 197.808 51.2109C196.661 49.8911 195.412 48.6891 194.105 47.5565C194.223 47.7608 198.178 54.6595 197.773 61.5722C197.773 61.5722 197.765 61.5745 197.76 61.5761C198.234 61.8554 198.705 62.1494 199.18 62.4279L199.693 62.7384L199.948 62.8936C200.044 62.9427 200.125 63.0012 200.122 63.0535C200.255 63.3296 200.387 63.7976 200.504 64.1853C200.975 65.8218 201.461 67.4638 202.037 69.059C203.182 72.2447 204.618 75.3141 206.607 77.9358C207.601 79.2369 208.718 80.4577 209.992 81.4523C211.244 82.4648 212.516 83.4523 213.796 84.4265C216.359 86.3727 218.219 87.7253 220.901 89.5023C223.586 91.2745 226.327 92.9664 229.187 94.4578C232.077 95.8931 235.031 97.2441 238.347 97.748C238.35 97.6903 238.343 97.6349 238.344 97.5772C238.354 97.4165 238.359 97.1256 238.332 96.7348Z" fill="#EFC8B1"/>
<path d="M195.914 51.2339C195.825 52.2293 195.27 54.7706 194.894 55.6747C194.179 55.5671 193.479 55.2722 192.859 54.8986C192.17 54.507 191.64 53.9282 190.977 53.4173C190.642 53.1747 190.281 52.9602 189.871 52.8198C189.459 52.7106 188.993 52.5772 188.448 52.9243C188.385 52.9734 188.296 53.0475 188.256 53.1887C188.203 53.3369 188.244 53.3806 188.244 53.4781C188.28 53.6107 188.33 53.7207 188.384 53.8182C188.494 54.0117 188.615 54.1864 188.743 54.3494C188.998 54.6794 189.273 54.9828 189.553 55.2792C190.651 56.4758 191.89 57.5296 193.027 58.6537L193.867 59.5304C194.169 59.8307 194.523 60.0609 194.89 60.2535C195.624 60.6396 196.411 60.8752 197.123 61.2122C197.378 61.3425 197.627 61.4938 197.878 61.6436V54.0249C196.906 53.7363 196.77 51.7277 195.914 51.2339Z" fill="#EFC8B1"/>
<path d="M220.926 81.393C220.926 81.393 222.256 83.5521 221.835 87.8853C221.414 92.2192 219.607 91.3767 219.607 91.3767C219.607 91.3767 224.122 94.8073 228.636 97.2153C233.151 99.6233 232.97 88.1263 232.97 88.1263C232.97 88.1263 221.402 79.9569 220.926 81.393Z" fill="white"/>
<path d="M232.266 119.484C232.249 119.792 232.113 120.181 232.33 120.331C239.266 125.1 252.713 120.125 252.618 119.534C252.151 116.689 252.075 113.751 252.622 110.91C253.852 104.515 258.572 98.3167 256.507 91.5857C256.499 91.5623 256.492 91.5381 256.483 91.5147C255.788 89.4414 248.938 87.0373 248.341 86.6512C248.543 87.1777 247.99 87.7854 247.8 88.0225C246.866 89.184 245.397 89.9094 243.995 90.3213C242.367 90.8002 240.659 90.9937 238.965 90.9281C238.014 90.8907 237.06 90.769 236.128 90.5787C235.557 90.4625 234.851 90.2799 234.469 89.8096C233.768 88.9461 234.431 87.6894 234.864 86.8532C234.864 86.8532 234.035 87.1637 232.971 87.184C231.652 87.2089 227.614 84.531 227.614 84.531C226.871 86.8197 228.008 95.9266 227.124 98.1443C226.567 99.5398 226.275 101.076 226.547 102.555C226.988 104.943 228.776 106.76 229.542 109.023C230.514 111.896 232.431 116.355 232.266 119.484Z" fill="white"/>
<path d="M232.008 116.743C232.008 116.743 230.063 131.507 223.522 136.643C218.625 140.488 249.288 144.856 258.625 137.711C259.022 137.406 259.08 136.827 258.756 136.445C258.241 135.839 257.448 134.583 256.431 131.976C254.54 127.132 252.331 117.203 252.331 117.203L232.008 116.743Z" fill="white"/>
<path d="M273.139 117.717C272.641 118.341 271.78 118.479 270.392 117.671C268.514 116.58 267.069 114.995 265.782 113.282C264.141 111.098 262.188 109.16 260.321 107.16C257.799 104.458 255.154 101.804 252.839 98.9202C250.949 96.566 249.441 94.7774 250.324 91.4911C250.459 90.9903 250.654 90.4918 250.997 90.0987C251.517 89.5012 252.343 89.3467 253.097 89.4364C254.975 89.6619 256.232 90.984 257.41 92.3C258.638 93.6705 260.002 94.9326 261.289 96.2501C264.035 99.066 266.72 101.966 268.985 105.187C270.461 107.288 272.035 109.365 273.058 111.739C274.098 114.153 274.155 116.445 273.139 117.717Z" fill="#EFC8B1"/>
<path d="M269.915 112.291H269.799C268.436 112.297 267.11 112.776 265.933 113.479C267.183 115.116 268.586 116.623 270.391 117.672C270.511 117.741 270.625 117.801 270.737 117.857C270.969 117.589 271.187 117.309 271.38 117.01C272.632 115.071 272.81 112.336 269.915 112.291Z" fill="#E8B79E"/>
<path d="M271.209 112.9C271.17 112.905 271.131 112.911 271.093 112.916C269.577 113.146 268.191 113.959 267.049 114.987C264.619 117.171 262.62 120.04 260.444 122.487C258.75 124.393 257.054 126.505 255.181 128.354C255.298 128.479 255.398 128.619 255.472 128.782C256.204 130.402 256.477 131.407 257.485 132.872C259.309 129.595 266.944 124.85 271.191 120.321C272.029 119.426 272.833 118.473 273.342 117.356C274.3 115.257 274.079 112.524 271.209 112.9Z" fill="#EFC8B1"/>
<path d="M255.074 131C255.071 131.004 253.008 133.387 252.61 133.347C252.212 133.308 251.688 132.797 251.688 132.797L254.394 129.274C254.394 129.274 251.54 131.978 250.846 132.023C250.152 132.069 249.634 131.501 249.634 131.501L253.29 127.671C253.29 127.671 250.88 130.533 250.05 130.794C249.219 131.057 248.582 130.534 248.582 130.534L252.112 126.233L251.987 126.91C251.987 126.91 250.247 128.23 249.57 128.105C248.894 127.98 248.359 127.582 248.359 127.582C248.359 127.582 250.212 126.273 251.168 125.334C252.123 124.396 253.084 124.549 253.084 124.549C254.793 125.963 255.855 128.12 256.946 130.041C257.79 131.525 257.812 134.369 257.812 134.369C257.812 134.369 257.282 135.33 255.074 131Z" fill="#F8D0B7"/>
<path d="M229.161 58.5821C229.161 58.5821 226.127 64.4199 226.297 72.8506C226.297 72.8506 220.62 65.4231 228.029 54.8106L229.161 58.5821Z" fill="#161616"/>
<path d="M258.938 107.429C258.938 107.429 265.693 106.466 267.06 101.409C267.06 101.409 257.282 90.1821 253.062 88.7928C248.842 87.4043 246.995 92.2601 249.002 95.6712C251.009 99.0823 258.938 107.429 258.938 107.429Z" fill="white"/>
<path d="M227.21 97.8828C227.21 97.8828 227.502 96.4163 228.675 94.7915C229.849 93.1659 227.495 94.169 225.217 95.2237C225.217 95.2237 227.225 96.343 227.222 97.0661C227.22 97.4725 227.21 97.8828 227.21 97.8828Z" fill="#E1E4E5"/>
<path d="M237.746 76.3545C237.987 76.3545 238.194 76.1907 238.255 75.9575C238.495 75.0269 239.333 74.3389 240.339 74.3389C241.345 74.3389 242.183 75.0269 242.424 75.9575C242.484 76.1907 242.692 76.3545 242.933 76.3545C243.271 76.3545 243.538 76.0386 243.455 75.7102C243.103 74.3131 241.846 73.2772 240.339 73.2772C238.832 73.2772 237.576 74.3131 237.224 75.7102C237.141 76.0386 237.407 76.3545 237.746 76.3545Z" fill="#F05B4E"/>
</svg>
